<?xml version="1.0" standalone="no"?>
<!DOCTYPE svg PUBLIC "-//W3C//DTD SVG 1.1//EN" "http://www.w3.org/Graphics/SVG/1.1/DTD/svg11.dtd" >
<!--
2013-9-30: Created.
-->
<svg>
<metadata>
Created by iconfont
</metadata>
<defs>

<font id="ivu-icon" horiz-adv-x="1024" >
  <font-face
    font-family="ivu-icon"
    font-weight="500"
    font-stretch="normal"
    units-per-em="1024"
    ascent="896"
    descent="-128"
  />
    <missing-glyph />
    
    <glyph glyph-name="bingo-resource-pool" unicode="&#59182;" d="M963.136 203.20000000000005l0.768 0-131.072 560.448c-8.896 41.792-46.592 74.176-87.488 74.176L275.328 837.824c-40.96 0-72.192-33.728-84.16-74.176l-131.136-560.448L60.8 203.20000000000005c-1.728-4.352-2.624-9.728-2.624-16.512l0-182.336c0-40.96 33.216-74.176 74.176-74.176l759.232 0c40.96 0 74.176 33.216 74.176 74.176l0 182.336C965.824 193.47199999999998 964.864 198.91200000000003 963.136 203.20000000000005zM654.208 89.53599999999994L369.792 89.53599999999994 369.792 218.88 139.968 218.88l127.424 542.784 489.28 0 127.36-542.784-229.824 0L654.208 89.53599999999994zM815.36 377.79200000000003l-53.632-90.944L262.336 286.84799999999996 208.64 377.79200000000003 815.36 377.79200000000003zM312.192 444.928L258.496 535.9359999999999l506.944 0-53.632-90.944L312.192 444.992zM362.048 603.072L308.416 694.016l407.232 0-53.632-90.944L362.048 603.072z"  horiz-adv-x="1024" />

    
    <glyph glyph-name="bingo-business-system" unicode="&#59292;" d="M351.43324737 745.62566894c16.22647002 0 29.75356406-5.40882334 41.46764589-16.67972373 11.27090039-11.27090039 17.1229043-24.79799443 17.1229043-41.03453672v-231.76354745c0-16.23654229-5.86207705-29.76363721-17.1229043-41.48778956a56.82789844 56.82789844 0 0 0-41.46764589-17.12290429H119.70998984c-16.22647002 0-29.75356406 5.86207705-41.02446445 17.12290429A57.90563349 57.90563349 0 0 0 62.00580166 456.14786104V688.35458994c0 16.23654229 5.40882334 29.76363721 16.67972373 41.03453672S103.48351982 746.0688495100001 119.70998984 746.0688495100001h231.72325753z m0-463.52709492c16.22647002 0 29.75356406-5.40882334 41.46764589-16.67972285 11.27090039-11.27090039 17.1229043-24.79799443 17.1229043-41.03453672v-232.65998174c0-16.23654229-5.86207705-29.75356406-17.1229043-41.03453672s-25.24117588-16.67972373-41.46764589-16.67972372H119.70998984c-16.22647002 0-29.75356406 5.40882334-41.02446445 16.67972372S62.01587393-24.522281829999997 62.01587393-8.275667290000001v232.67005401c0 16.22647002 5.40882334 29.75356406 16.67972373 41.03453672s24.79799443 16.67972373 41.02446445 16.67972284z m464.78613164 0c16.22647002 0 29.75356406-5.40882334 41.02446445-16.67972285s16.66965146-24.8080667 16.66965146-41.02446445v-232.67005401c0-16.23654229-5.40882334-29.75356406-16.67972373-41.03453672s-24.78792217-16.68979599-40.99424765-16.68979599H584.49612148c-16.22647002 0-29.75356406 5.40882334-41.46764589 16.67972373-11.27090039 11.27090039-17.1229043 24.79799443-17.1229043 41.03453672V224.39438672000006c0 16.22647002 5.86207705 29.75356406 17.1229043 41.03453672s25.24117588 16.67972373 41.46764589 16.67972284z m128.92539814 361.59545215c12.17740693-12.17740693 18.48266455-27.05418896 18.48266455-43.7339127s-6.30525761-31.09317979-18.46252002-42.817333L772.48546719 384.44318144c-12.16733467-12.17740693-26.59086299-18.48266455-43.31087667-18.48266454-16.22647002 0-30.66007148 6.31532989-43.31087578 18.48266455L513.27491065 557.1427804699999c-11.72415323 11.72415323-17.57615801 26.18797148-17.57615713 42.83747753s5.86207705 31.11332432 17.57615713 43.7339127L685.93422148 816.41376972Q704.19529531 834 729.24509727 834q24.34474073 0 43.31087578-17.58623027z m0 0"  horiz-adv-x="1024" />

    
    <glyph glyph-name="bingo-memory" unicode="&#59166;" d="M954.19999971 294.37500029A37.42499971 37.42499971 0 0 1 924.49999971 309.00000029h-299.99999971a37.50000029 37.50000029 0 0 1-37.50000029-37.50000029v-18.74999971H136.99999971a74.99999971 74.99999971 0 0 0-74.99999971 74.99999971v112.5a74.99999971 74.99999971 0 0 0 74.99999971 74.99999971h750.00000058a74.99999971 74.99999971 0 0 0 74.99999971-74.99999971v-112.5c0-11.99999971-2.8125-23.2875-7.80000029-33.37499971zM586.99999971 196.50000029v-225a37.50000029 37.50000029 0 0 1 37.50000029-37.50000029h131.24999971H136.99999971a74.99999971 74.99999971 0 0 0-74.99999971 74.99999971v112.5a74.99999971 74.99999971 0 0 0 74.99999971 75.00000058h450zM136.99999971 834h750.00000058a74.99999971 74.99999971 0 0 0 74.99999971-74.99999971v-112.5a74.99999971 74.99999971 0 0 0-74.99999971-75.00000058H136.99999971a74.99999971 74.99999971 0 0 0-74.99999971 75.00000058V759.00000029a74.99999971 74.99999971 0 0 0 74.99999971 74.99999971z m37.50000029-168.75a37.50000029 37.50000029 0 1 1 0 74.99999971 37.50000029 37.50000029 0 0 1 0-74.99999971z m0-637.49999971a37.50000029 37.50000029 0 1 1 0 74.99999971 37.50000029 37.50000029 0 0 1 0-74.99999971zM174.5 346.49999971a37.50000029 37.50000029 0 1 1 0 75.00000058 37.50000029 37.50000029 0 0 1 0-75.00000058z m487.50000029-74.99999971h225l74.99999971-75.15V-28.499999709999997a37.50000029 37.50000029 0 0 0-37.50000029-37.50000029h-262.49999942a37.50000029 37.50000029 0 0 0-37.50000029 37.50000029v262.49999942a37.50000029 37.50000029 0 0 0 37.50000029 37.50000029z m37.49999942-37.50000029v-74.99999971a37.50000029 37.50000029 0 0 1 37.50000029-37.50000029h112.5a37.50000029 37.50000029 0 0 1 37.50000029 37.50000029v74.99999971h-187.50000058z m37.50000029-187.49999971a37.50000029 37.50000029 0 0 1-37.50000029-37.50000029v-37.49999942h187.50000058v37.49999942a37.50000029 37.50000029 0 0 1-37.50000029 37.50000029h-112.5z"  horiz-adv-x="1024" />

    
    <glyph glyph-name="bingo-rackroom" unicode="&#58893;" d="M113.9672 384.5532c0 116.43-0.0348 232.8588 0.0144 349.2924 0.0252 56.1744 24.6168 81.5028 79.8744 81.5364a544780.44 544780.44 0 0 0 638.6952 0c54.1944-0.0288 79.6788-25.2828 79.7088-79.3668 0.1572-236.1864 0.1512-472.3752 0.0096-708.5592-0.0276-51.3684-24.9084-76.998-76.3932-77.0856-215.3964-0.3552-430.7892-0.366-646.182 0.006-51.6228 0.0912-75.6432 25.4208-75.69 77.4072-0.1128 118.9224-0.0372 237.8448-0.0372 356.7696z m65.9532-2.5692c0-107.3136-0.1176-214.6248 0.0684-321.9384 0.0612-34.77 9.5124-44.6988 44.4996-44.7492 192.1644-0.2736 384.3336-0.2676 576.498-0.0096 36.2364 0.0504 45.5856 9.9828 45.606 46.4064 0.1068 213.792 0.1164 427.5912-0.0204 641.3832-0.0252 36.3156-9.6324 45.6996-45.996 45.714-191.3352 0.0876-382.6656 0.0876-573.9984 0.0048-37.8924-0.0156-46.6104-8.9652-46.6344-47.3664-0.0744-106.4784-0.0276-212.9568-0.0228-319.4448zM780.3008 721.596H246.0188c-17.9424 0-32.4912-14.7204-32.4912-32.886v-134.3304c0-18.162 14.5488-32.886 32.4912-32.886h534.282c17.9484 0 32.4936 14.724 32.4936 32.886V688.71c0 18.1644-14.5452 32.886-32.4936 32.886zM327.9344 586.602c-19.2948 0-34.9404 15.6432-34.9404 34.9416 0 19.296 15.6456 34.9404 34.9404 34.9404 19.2972 0 34.9416-15.6444 34.9416-34.9404-0.0012-19.2984-15.6456-34.9416-34.9416-34.9416zM780.3008 482.8392H246.0188c-17.9424 0-32.4912-14.7216-32.4912-32.886v-134.3256c0-18.162 14.5488-32.8932 32.4912-32.8932h534.282c17.9484 0 32.4936 14.7312 32.4936 32.8932V449.952c0 18.1656-14.5452 32.8872-32.4936 32.8872zM327.9344 347.8488c-19.2948 0-34.9404 15.636-34.9404 34.9404 0 19.2936 15.6456 34.938 34.9404 34.938 19.2972 0 34.9416-15.6444 34.9416-34.938-0.0012-19.3044-15.6456-34.9404-34.9416-34.9404zM780.3008 244.0824H246.0188c-17.9424 0-32.4912-14.7204-32.4912-32.8872v-134.328c0-18.1608 14.5488-32.8872 32.4912-32.8872h534.282c17.9484 0 32.4936 14.7264 32.4936 32.8872v134.328c0 18.168-14.5452 32.8872-32.4936 32.8872zM327.9344 109.09320000000002c-19.2948 0-34.9404 15.6372-34.9404 34.9392 0 19.2948 15.6456 34.9428 34.9404 34.9428 19.2972 0 34.9416-15.648 34.9416-34.9428-0.0012-19.302-15.6456-34.9392-34.9416-34.9392z"  horiz-adv-x="1024" />

    
    <glyph glyph-name="bingo-physical-machine" unicode="&#59148;" d="M224.768 639.04h63.488a32 32 0 0 1 0 64h-63.488a32 32 0 0 1 0-64zM224.768 511.68h63.488a32 32 0 0 1 0 64h-63.488a32 32 0 0 1 0-64zM224.768 384h63.488a32 32 0 0 1 0 64h-63.488a32 32 0 0 1 0-64zM384.512 832.192H128.896a64 64 0 0 1-64-64v-768.384a64 64 0 0 1 64-64h255.616a64 64 0 0 1 64 64V768.192a64 64 0 0 1-64 64z m0-800.384a32 32 0 0 0-32-32H160.896a32 32 0 0 0-32 32V736.192a32 32 0 0 0 32 32h191.616a32 32 0 0 0 32-32v-704.384zM256.64 191.61599999999999m-63.872 0a63.872 63.872 0 1 1 127.744 0 63.872 63.872 0 1 1-127.744 0ZM735.424 639.04h63.488a32 32 0 0 1 0 64h-63.488a32 32 0 0 1 0-64zM735.424 511.68h63.488a32 32 0 0 1 0 64h-63.488a32 32 0 0 1 0-64zM735.424 384h63.488a32 32 0 0 1 0 64h-63.488a32 32 0 0 1 0-64zM895.104 832.192H639.488a64 64 0 0 1-64-64v-768.384a64 64 0 0 1 64-64h255.616a64 64 0 0 1 64 64V768.192a64 64 0 0 1-64 64z m0-800.384a32 32 0 0 0-32-32h-191.616a32 32 0 0 0-32 32V736.192a32 32 0 0 0 32 32h191.616a32 32 0 0 0 32-32v-704.384zM767.232 191.61599999999999m-63.872 0a63.872 63.872 0 1 1 127.744 0 63.872 63.872 0 1 1-127.744 0Z"  horiz-adv-x="1024" />

    
    <glyph glyph-name="bingo-firewall" unicode="&#58884;" d="M898.56-61.226666669999986H423.04c-10.24 0-18.45333333 8.21333333-18.45333333 18.24V72c0 10.13333333 8.32 18.24 18.45333333 18.24h475.52c10.24 0 18.45333333-8.21333333 18.45333333-18.24v-114.88c0.10666667-10.13333333-8.21333333-18.34666667-18.45333333-18.34666667z m-1.28 338.24c10.24 0 18.45333333-8.21333333 18.45333333-18.24v-114.88c0-10.13333333-8.32-18.24-18.45333333-18.24H675.30666667c-10.24 0-18.45333333 8.21333333-18.45333334 18.24V258.77333333c0 10.13333333 8.32 18.24 18.45333334 18.24h221.97333333z m1.28 32.64H423.04c-10.24 0-18.45333333 8.21333333-18.45333333 18.24V442.88c0 10.13333333 8.32 18.24 18.45333333 18.24h475.52c10.24 0 18.45333333-8.21333333 18.45333333-18.24v-114.88c0.10666667-10.13333333-8.21333333-18.34666667-18.45333333-18.34666667zM590.82666667 495.14666667v18.24c-2.77333333 60.16-25.70666667 108.48-31.68 90.13333333-5.97333333-18.34666667-19.84-45.65333333-19.84-45.65333333-36.8-52.26666667-30.4 124.05333333-30.4 124.05333333-91.84-79.57333333-74.88-175.78666667-72.85333334-185.92l-67.2 0.42666667s-109.12 177.06666667 171.73333334 342.18666666c0 0-9.6-67.62666667 74.02666666-125.33333333 2.98666667-2.24 15.57333333-13.44 21.12-20.90666667 53.65333333-72.53333333 38.50666667-182.18666667 25.06666667-197.22666666h-69.97333333z m-224.64-52.26666667v-114.88c0-10.13333333-8.32-18.24-18.45333334-18.24H125.76c-10.24 0-18.45333333 8.21333333-18.45333333 18.24V442.88c0 10.13333333 8.32 18.24 18.45333333 18.24H347.73333333c10.24 0 18.45333333-8.10666667 18.45333334-18.24zM125.76 277.01333333h475.52c10.24 0 18.45333333-8.21333333 18.45333333-18.24v-114.88c0-10.13333333-8.32-18.24-18.45333333-18.24H125.76c-10.24 0-18.45333333 8.21333333-18.45333333 18.24V258.77333333c0 10.02666667 8.32 18.24 18.45333333 18.24z m0-186.77333333H347.73333333c10.24 0 18.45333333-8.21333333 18.45333334-18.24v-114.88c0-10.13333333-8.32-18.24-18.45333334-18.24H125.76c-10.24 0-18.45333333 8.21333333-18.45333333 18.24V72c0 10.13333333 8.32 18.24 18.45333333 18.24z"  horiz-adv-x="1024" />

    
    <glyph glyph-name="bingo-memory-device" unicode="&#58880;" d="M819.10077533 822.07751933h-619.162791C140.40310033 822.07751933 92.77519333 774.44961233 92.77519333 714.91472833v-23.813953C92.77519333 631.56589133 140.40310033 583.9379843300001 199.93798433 583.9379843300001h619.162791C878.63565933 583.9379843300001 926.26356633 631.56589133 926.26356633 691.10077533v23.813953C926.26356633 774.44961233 878.63565933 822.07751933 819.10077533 822.07751933zM783.37984533 655.37984533h-214.325582V750.63565933h214.325582v-95.255814zM819.10077533 512.4961243299999h-619.162791C140.40310033 512.4961243299999 92.77519333 464.86821733 92.77519333 405.33333333v-23.813953C92.77519333 321.98449632999996 140.40310033 274.35658933 199.93798433 274.35658933h619.162791c59.534884 0 107.162791 47.627907 107.162791 107.162791v23.813953c0 59.534884-47.627907 107.162791-107.162791 107.162791zM783.37984533 345.79844933000004h-214.325582v95.255814h214.325582v-95.255814zM819.10077533 202.91472833h-619.162791C140.40310033 202.91472833 92.77519333 155.28682132999995 92.77519333 95.75193833000003v-23.813954C92.77519333 12.40310033000003 140.40310033-35.22480667000002 199.93798433-35.22480667000002h619.162791c59.534884 0 107.162791 47.627907 107.162791 107.162791v23.813954c0 59.534884-47.627907 107.162791-107.162791 107.16279zM783.37984533 36.217054329999996h-214.325582v95.255814h214.325582v-95.255814z"  horiz-adv-x="1024" />

    
    <glyph glyph-name="bingo-load-balance" unicode="&#58909;" d="M827 254.625c-16.875 0-33.75-5.625-50.625-11.25L607.62499999 552.75c28.125 28.125 50.625 61.875 50.62500001 106.875 0 78.75-61.875 140.625-140.625 140.625S377 732.75 377 659.625c0-33.75 11.25-67.50000001 33.75-95.625l-174.375-315c-11.25 0-22.50000001 5.625-33.75 5.625-78.75 0-140.625-61.875-140.625-140.625s61.875-140.625 140.625-140.625c67.50000001 0 123.75 50.625 135 118.12500001l348.75-2e-8c11.25-67.50000001 67.50000001-118.125 135-118.12499999 78.75 0 140.625 61.875 140.625 140.625S905.75 254.625 827 254.625L827 254.625zM461.375 530.25c16.875-11.25 39.375-11.25 56.25-11.25 11.25 0 28.125 0 39.375 5.625l174.375-309.375c-16.875-16.875-28.125-39.375-33.75-67.5L343.25 147.75c-5.625 33.75-28.125 61.875-50.625 78.74999999L461.375 530.25 461.375 530.25z"  horiz-adv-x="1024" />

    
    <glyph glyph-name="ios-add" unicode="&#59693;" d="M737 416H544v193c0 17.6-14.4 32-32 32s-32-14.4-32-32V416h-193c-17.6 0-32-14.4-32-32 0-8.8 3.6-16.8 9.4-22.6 5.8-5.8 13.8-9.4 22.6-9.4H480v-193c0-8.8 3.6-16.8 9.4-22.6 5.8-5.8 13.8-9.4 22.6-9.4 17.6 0 32 14.4 32 32V352h193c17.6 0 32 14.4 32 32s-14.4 32-32 32z"  horiz-adv-x="1024" />

    
    <glyph glyph-name="ios-add-circle" unicode="&#59694;" d="M512 800C282.2 800 96 613.8 96 384s186.2-416 416-416 416 186.2 416 416S741.8 800 512 800z m181-448H544v-149c0-17.6-14.4-32-32-32-8.8 0-16.8 3.6-22.6 9.4-5.8 5.8-9.4 13.8-9.4 22.6V352h-149c-8.8 0-16.8 3.6-22.6 9.4-5.8 5.8-9.4 13.8-9.4 22.6 0 17.6 14.4 32 32 32H480v149c0 17.6 14.4 32 32 32s32-14.4 32-32V416h149c17.6 0 32-14.4 32-32s-14.4-32-32-32z"  horiz-adv-x="1024" />

    
    <glyph glyph-name="ios-airplane" unicode="&#59695;" d="M815.4 448c-6.8 0-29.6-0.2-36-0.6l-129.8-3.4c-1.4 0-2.8 0.6-3.4 1.8L451.6 737.2c-5.8 9.2-16.2 14.8-27 14.8h-47.4c-11.2 0-15-11.2-11-21.6l100.2-285.6c1-2.6-0.8-5.4-3.6-5.4L218 435.8c-5.2-0.2-10 2.2-13.2 6.2l-74 90c-6 7.8-15.4 12.2-25.2 12.2H72c-5.6 0-9.4-5.4-7.6-10.6l39.8-137.4c3-7.6 3-16.2 0-23.8l-39.8-137.4c-1.8-5.2 2-10.6 7.6-10.6h33.4c9.8 0 19.2 4.6 25.2 12.2L206 328c3.2 4 8.2 6.4 13.2 6.2l243.4-5.4c2.8-0.2 4.6-2.8 3.6-5.4L366 37.6c-4-10.4-0.2-21.6 11-21.6h47.4c11 0 21.2 5.6 27 14.8L646.2 322c0.8 1.2 2 1.8 3.4 1.8l129.8-3.4c6.6-0.4 29.2-0.6 36-0.6 88.6 0 144.6 28.6 144.6 64S904.2 448 815.4 448z"  horiz-adv-x="1024" />

    
    <glyph glyph-name="ios-albums" unicode="&#59696;" d="M921.8 574H102.2C63.6 574 32 542.4 32 503.8V40c0-38.6 31.6-70.2 70.2-70.2H922c38.6 0 70.2 31.6 70.2 70.2V503.8c-0.2 38.6-31.8 70.2-70.4 70.2zM868 630H156c-15.4 0-28 12.6-28 28s12.6 28 28 28h712c15.4 0 28-12.6 28-28s-12.6-28-28-28zM806.4 742H217.6c-14 0-25.6 11.6-25.6 25.6v4.8c0 14 11.6 25.6 25.6 25.6h588.8c14 0 25.6-11.6 25.6-25.6v-4.8c0-14-11.6-25.6-25.6-25.6z"  horiz-adv-x="1024" />

    
    <glyph glyph-name="ios-alarm" unicode="&#59697;" d="M762.4 767.8c-2.6 0.2-5.2 0.2-7.8 0.2h-0.4c-32.4 0-64-10.8-89.2-30.2-3.2-2.6-5.2-6.4-5.4-10.4-0.2-4 1.6-8 4.6-10.8l179.6-161c2.6-2.2 5.8-3.6 9.2-3.6h0.8c3.8 0.2 7.2 2 9.6 4.8C881.8 578 896 594.4 896 630c0.2 72.8-58.2 133.6-133.6 137.8zM128 630c0-35.6 14.2-52 32.6-73.2 2.4-2.8 5.8-4.6 9.6-4.8h0.8c3.4 0 6.6 1.2 9.2 3.6L360 716.6c3 2.8 4.8 6.6 4.6 10.8-0.2 4-2 7.8-5.4 10.4C334 757.2 302.4 768 270 768h-0.4c-2.6 0-5.2 0-7.8-0.2-75.4-4.2-134-65-133.8-137.8zM780 124c52.4 61.4 84 141 84 228 0 194.4-157.6 352-352 352S160 546.4 160 352c0-87 31.6-166.6 84-228l-69.4-71c-12.4-12.6-12-31 0.6-43.2 6.2-6 14.8-9.6 22.8-9.6 8.4 0 16.2 3.8 22.4 10.2l69.2 69c60.6-49.4 138-79.2 222.4-79.2s161.8 29.6 222.4 79.2l67.2-69c6.2-6.4 14.6-10.2 23-10.2 8 0 16.2 3.6 22.4 9.6 12.6 12.4 15 30.6 2.6 43.2L780 124zM540 348c0-15.4-12.6-28-28-28h-164c-15.4 0-28 12.6-28 28s12.6 28 28 28h136V580c0 15.4 12.6 28 28 28s28-12.6 28-28v-232z"  horiz-adv-x="1024" />

    
    <glyph glyph-name="ios-alert-outline" unicode="&#59698;" d="M512 800C282.2 800 96 613.8 96 384s186.2-416 416-416 416 186.2 416 416S741.8 800 512 800z m0-797.4c-210.2 0-381.4 171-381.4 381.4 0 210.2 171 381.4 381.4 381.4 210.2 0 381.4-171 381.4-381.4 0-210.2-171.2-381.4-381.4-381.4zM512 229.8c-17.6 0-32-14.4-32-32s14.4-32 32-32 32 14.4 32 32-14.4 32-32 32zM488.4 429.6V608h48v-178.4l-12-141.6h-24l-12 141.6z"  horiz-adv-x="1024" />

    
    <glyph glyph-name="ios-alert" unicode="&#59699;" d="M512 800C282.2 800 96 613.8 96 384s186.2-416 416-416 416 186.2 416 416S741.8 800 512 800z m34.4-219.2l-6.2-230.2c-0.4-16.4-11.8-29.6-28.2-29.6s-27.8 13.2-28.2 29.6l-6.2 230.2c-0.4 19.2 15 35.2 34.4 35.2 19.2 0 34.8-15.8 34.4-35.2zM512 188c-21.4 0-38.2 16.2-38.2 36.8s16.8 36.8 38.2 36.8c21.4 0 38.2-16.2 38.2-36.8S533.4 188 512 188z"  horiz-adv-x="1024" />

    
    <glyph glyph-name="ios-alarm-outline" unicode="&#59700;" d="M876.8 511.2c24.4 28.4 39.2 64.6 39.2 104.4 0.2 87.6-71 159.2-160.8 164.2-3.2 0.2-6.2 0.2-9.6 0.2-40.8 0.2-78.2-13.6-107.6-36.2l107.6-104.8-21-20.8c-51.4 38.8-114 64-182 69.8v0.2c0 17-14 31-31 31s-31-14-31-31v-0.2c-67.8-5.8-130.2-31-181.4-69.8l-20.8 20.8L386 743.8c-29.4 22.8-66.8 36.4-107.4 36.2-3.2 0-6.4-0.2-9.6-0.2-90-5-161.2-76.6-160.8-164.2 0-39.6 14.8-76 39.2-104.4l108 105.2 19-19c-70.2-63.8-114.2-156-114.2-258.4 0-87.8 32.4-168 86-229.4l-72.8-89.2L198 0l70.4 85.8c63.2-60.4 148.8-97.8 243.2-97.8h0.8c94.4 0 180.4 37.4 243.6 97.8l70.4-86 24.6 20.2-73 89.4c53.6 61.6 86 141.8 86 229.4 0 102.2-44 194.6-114.4 258.6l19 19 108.2-105.2zM152.4 560.4c-8.4 17.2-12.8 36.8-13 56-0.2 70.2 56.8 129.2 131 133.6 25.4 1.4 46.2-2.8 64.2-12.2l-182.2-177.4z m679.4-217.4c0-175.4-144-314.2-320.2-314.2-176 0-319.6 138.8-319.6 314.2 0 175.4 143.6 317.4 319.8 317.4 176.2 0 320-141.8 320-317.4zM689.4 737.6c17.6 9.6 38.6 13.6 64.2 12.2 74.4-4 131.2-63 131-133.6 0-19.2-4.6-38.8-13-56.2l-182.2 177.6zM512 576v-256h-192v-32h224V576z"  horiz-adv-x="1024" />

    
    <glyph glyph-name="ios-albums-outline" unicode="&#59701;" d="M928 608v-576H96V608h832m32 32H64v-640h896V640zM144 704h736v-32H144zM208 768h608v-32H208z"  horiz-adv-x="1024" />

    
    <glyph glyph-name="ios-analytics" unicode="&#59702;" d="M512 800C282.2 800 96 613.8 96 384s186.2-416 416-416 416 186.2 416 416S741.8 800 512 800zM152 384c0 96.2 37.4 186.6 105.4 254.6S415.8 744 512 744c96.2 0 186.6-37.4 254.6-105.4 64.4-64.4 101.4-149 105.2-239.4-17.6 20.6-48.4 48-87.6 48-55 0-83.4-51.4-102-85.4-2.8-5-5.4-9.8-7.8-14-22.8-38.4-54.6-60-85-57.8-26.8 1.8-49.6 22.4-64.4 57.6-18.4 44.2-58.2 91.6-105.8 98.4-22.6 3.2-56.2-1.6-89.4-42.8-6.4-8-13.8-18.8-22.2-31.2-20.8-31-52.4-77.6-76.2-81.6-34.6-5.6-61.8 15-72.8 24.6-4.4 22.4-6.6 45.6-6.6 69z"  horiz-adv-x="1024" />

    
    <glyph glyph-name="ios-american-football" unicode="&#59704;" d="M757.2 629.2C676.2 710.2 567.8 754 462.8 776.8L119.2 433.2C142 328 185.8 219.8 266.8 138.8c81-81 189.4-124.8 294.4-147.6l343.6 343.6c-22.8 105-66.6 213.4-147.6 294.4zM688.2 320l-38.4-38.4 29.6-29.6c9.8-9.8 9.8-25.4 0-35.2-9.8-9.8-25.4-9.8-35.2 0l-29.6 29.6-38.6-38.8c-4-4-9-6.8-14.6-7.8-8.4-1.4-16.8 1.4-22.6 7.2-3 3-5.2 6.6-6.4 10.6-2.8 9.8-0.2 19.4 6.4 26.2l39 39-31.2 31.2-38.6-38.6c-4.2-4.2-9.4-7-15.2-7.8-11-1.4-21.4 3.8-26.8 14-0.6 1.2-1.2 2.4-1.6 3.8-3 9.8-0.4 19.6 6.4 26.4l39 39-31 31.2-38.6-38.6c-4.2-4.2-9.4-7-15.2-7.8-11-1.4-21.4 3.8-26.8 14-0.6 1.2-1.2 2.4-1.6 3.8-3 9.8-0.4 19.6 6.4 26.4l39 39-31 31.2-38.6-38.6c-4.2-4.2-9.4-7-15.2-7.8-11-1.4-21.4 3.8-26.8 14-0.6 1.2-1.2 2.4-1.6 3.8-3 9.8-0.4 19.6 6.4 26.4l39 39-29.6 29.6c-9.8 9.8-9.8 25.4 0 35.2 9.8 9.8 25.4 9.8 35.2 0l29.6-29.6 38.6 38.6c4.2 4.2 9.4 7 15.2 7.8 11 1.4 21.4-3.8 26.8-14 0.6-1.2 1.2-2.4 1.6-3.8 3-9.8 0.4-19.6-6.4-26.4l-39-39 31.2-31.2 38.6 38.6c4 4 9 6.8 14.6 7.8 8.4 1.4 16.8-1.4 22.6-7.2 3-2.8 5.2-6.4 6.4-10.4 3-9.8 0.4-19.6-6.4-26.4L514 417.2l31.2-31.2 38.6 38.6c4.2 4.2 9.4 7 15.2 7.8 11 1.4 21.4-3.8 26.8-14 0.6-1.2 1.2-2.4 1.6-3.8 3-9.8 0.4-19.6-6.4-26.4L582 349.2l31.2-31.2 38.6 38.6c4.4 4.4 10 7.2 16 8 8.8 1 17.2-2.4 22.8-9.2 8.2-10 7-26.2-2.4-35.4zM790.2-32c55.2 0 97.6 3.6 117.6 5.8 7.4 0.8 13.4 6.8 14.2 14.2 4 37.8 13.6 155.2-6.4 287.4L620.6-19.8c62-9.4 120.8-12.2 169.6-12.2zM233.6 800C178.6 800 136 796.4 116 794.2c-7.4-0.8-13.4-6.8-14.2-14.2-4-37.8-13.6-155.2 6.4-287.2L403.2 787.8c-62 9.4-120.8 12.2-169.6 12.2z"  horiz-adv-x="1024" />

    
    <glyph glyph-name="ios-aperture-outline" unicode="&#59705;" d="M512 800C282.2 800 96 613.8 96 384c0-131 60.6-247.8 155.2-324.2l-1.2-2.2 16.6-9.6c68.8-50.4 153.6-80 245.4-80 229.8 0 416 186.2 416 416S741.8 800 512 800z m353.8-266.6c20-47.4 30.2-97.6 30.2-149.4 0-10.8-0.4-21.4-1.4-32H569l188.8 327c8.8-7.4 17.4-15.2 25.8-23.4 35.2-35.4 62.8-76.4 82.2-122.2zM474 381.8l19.8 34.2h37.4l18.8-32.8-18-31.2h-40.8l-17.2 29.8z m187.4 356c25-10.6 48.6-23.8 70.8-39.2l-163.6-283.4-190 329C421.2 760 466 768 512 768c51.8 0 102.2-10.2 149.4-30.2z m-421-82.2c31.8 31.8 68.2 57.4 108.4 76.2l164-283.8H133.4c5 29.4 13.2 57.8 24.8 85.4 19.4 45.8 47 86.8 82.2 122.2z m0-543.2c-35.2 35.2-63 76.4-82.4 122-19.8 47.4-30 97.8-30 149.6 0 10.8 0.4 21.4 1.4 32h327.6l-189.4-328c-9.4 7.6-18.4 15.8-27.2 24.4z m122.2-82.2c-24.6 10.4-47.8 23.2-69.4 38.2l162.4 281.4L644 23.4c-42.2-15.4-86.6-23.4-132-23.4-51.8 0-102.2 10.2-149.4 30.2z m421 82.2c-32-32-68.8-57.8-109.6-76.8L509.8 320h381c-5-29.4-13.2-57.8-24.8-85.4-19.6-45.8-47.2-86.8-82.4-122.2z"  horiz-adv-x="1024" />

    
    <glyph glyph-name="ios-appstore" unicode="&#59706;" d="M512 800C282.2 800 96 613.8 96 384s186.2-416 416-416 416 186.2 416 416S741.8 800 512 800z m-157.8-593.8c-5.4-9.2-15-14.2-25-14.2-5 0-10 1.2-14.6 4-13.8 8-18.4 25.6-10.4 39.4l28.4 47.2c3 5 8.2 8 14 8h4.2c20.6 0 35-12.4 39.2-24.4l-35.8-60z m240.4 92.8l-186-0.2h-123.6c-16.4 0-29.6 13.6-28.8 30 0.6 15.6 14.2 27.4 29.8 27.4h89.6l106.2 180.8-34.4 58.6c-7.8 13.4-4.4 31 8.8 39.4 14 9 32.4 4.4 40.6-9.6l18.4-31.4h0.2l18.4 31.4c8.2 14 26.8 18.6 40.6 9.6 13.2-8.4 16.6-26 8.8-39.4l-34.4-58.6-33.4-57-72.6-123.8v-0.2h107c13.4 0 30.2-7.2 37-18.8l0.6-1.2c6-10.2 9.4-17.2 9.4-27.4-0.2-5.6-2.2-9.6-2.2-9.6z m144.4-0.2h-50.4v-0.2l36.8-62.6c8-13.6 4.2-31.6-9.6-40-4.6-2.8-9.8-4.2-15-4.2-10 0-19.6 5.2-25 14.2l-54.4 92.6-33.8 57.6-43.6 74.6c-12.8 21.8-13.4 49-1.2 70.6 8.6 15.2 15.2 19.2 15.2 19.2l97-164.2h83.4c15.6 0 29-12 29.8-27.4 0.6-16.6-12.6-30.2-29.2-30.2z"  horiz-adv-x="1024" />

    
    <glyph glyph-name="ios-archive" unicode="&#59707;" d="M920 656H104c-4.4 0-8 3.6-8 8V704c0 35.4 28.6 64 64 64h704c35.4 0 64-28.6 64-64v-40c0-4.4-3.6-8-8-8zM880 604H144c-8.8 0-16-7.2-16-16v-524c0-35.2 28.8-64 64-64h640c35.2 0 64 28.8 64 64V588c0 8.8-7.2 16-16 16zM612 320h-199.2c-14.2 0-26.8 10.4-28.6 24.6-2 17 11.2 31.4 27.8 31.4h199.2c14.2 0 26.8-10.4 28.6-24.6 2-16.8-11.2-31.4-27.8-31.4z"  horiz-adv-x="1024" />

    
    <glyph glyph-name="ios-apps" unicode="&#59709;" d="M869.6 620.8L570.8 757c-32.4 14.8-85.4 14.8-117.8 0L154.4 620.8c-35.2-16-35.2-42.2 0-58.2l296-135c33.8-15.4 89.4-15.4 123.2 0l296 135c35.2 16 35.2 42.2 0 58.2zM450.4 145.6l-199.6 91c-8.4 3.8-18.2 3.8-26.6 0l-69.8-31.8c-35.2-16-35.2-42.2 0-58.2l296-135c33.8-15.4 89.4-15.4 123.2 0l296 135c35.2 16 35.2 42.2 0 58.2l-69.8 31.8c-8.4 3.8-18.2 3.8-26.6 0l-199.6-91c-33.8-15.4-89.4-15.4-123.2 0zM869.6 412.8l-63.4 28.8c-8.4 3.8-18 3.8-26.4 0l-216-97.8c-30.6-10.4-73.2-10.4-103.8 0l-216 97.8c-8.4 3.8-18 3.8-26.4 0l-63.4-28.8c-35.2-16-35.2-42.2 0-58.2l296-135c33.8-15.4 89.4-15.4 123.2 0l296 135c35.4 16 35.4 42.2 0.2 58.2z"  horiz-adv-x="1024" />

    
    <glyph glyph-name="ios-archive-outline" unicode="&#59710;" d="M575.6 416c17.6 0 32.2-14.4 32.2-32s-14-32-31.8-32h-128c-17.6 0-32 14.4-32 32s14.4 32 32 32h126m2 32h-128c-35.2 0-64-28.8-64-64s28.8-64 64-64h128c35.2 0 64 28.8 64 64s-28.8 64-64 64zM832 672H192v-160h32v-416h576V512h32v160z m-64-544H256V512h512v-384z m32 416H224v96h576v-96z"  horiz-adv-x="1024" />

    
    <glyph glyph-name="ios-add-circle-outline" unicode="&#59711;" d="M693 416H544v149c0 17.6-14.4 32-32 32s-32-14.4-32-32V416h-149c-17.6 0-32-12-32-32s15-32 32-32H480v-149c0-19 14-32 32-32s32 14.4 32 32V352h149c17.6 0 32 14.4 32 32s-14.4 32-32 32zM512 744c96.2 0 186.6-37.4 254.6-105.4S872 480.2 872 384s-37.4-186.6-105.4-254.6S608.2 24 512 24c-96.2 0-186.6 37.4-254.6 105.4S152 287.8 152 384s37.4 186.6 105.4 254.6S415.8 744 512 744m0 56C282.2 800 96 613.8 96 384s186.2-416 416-416 416 186.2 416 416S741.8 800 512 800z"  horiz-adv-x="1024" />

    
    <glyph glyph-name="ios-arrow-down" unicode="&#59712;" d="M512 307.8L766 562c18.8 18.8 49.2 18.8 67.8 0s18.6-49.2 0-68L546 206c-18.2-18.2-47.4-18.6-66.2-1.4L190 493.8c-9.4 9.4-14 21.8-14 34s4.6 24.6 14 34c18.8 18.8 49.2 18.8 67.8 0l254.2-254z"  horiz-adv-x="1024" />

    
    <glyph glyph-name="ios-arrow-dropleft-circle" unicode="&#59713;" d="M512 800C282.2 800 96 613.8 96 384s186.2-416 416-416 416 186.2 416 416S741.8 800 512 800z m86.8-578.2c15-15 15-39.6 0-54.6-7.6-7.6-17.4-11.2-27.2-11.2s-19.8 3.8-27.4 11.4l-188 188.6c-13.8 15.2-13.4 38.6 1.2 53.2l190.8 191.4c15 15 39.4 15.2 54.6 0 15-15 15.2-39.4 0-54.6l-163.8-162 159.8-162.2z"  horiz-adv-x="1024" />

    
    <glyph glyph-name="ios-arrow-dropdown" unicode="&#59714;" d="M295.2 474.6c-15-15-15-39.6 0-54.6l191.4-190.8c14.6-14.6 38.2-15 53.2-1.2l188.6 188c7.6 7.6 11.4 17.4 11.4 27.4 0 9.8-3.8 19.8-11.2 27.2-15 15-39.4 15.2-54.6 0l-162-159.6-162.2 163.8c-15 15-39.4 15-54.6-0.2zM96 384c0-229.8 186.2-416 416-416s416 186.2 416 416S741.8 800 512 800 96 613.8 96 384z m664.8 248.8C827.4 566.4 864 478 864 384s-36.6-182.4-103.2-248.8C694.4 68.6 606 32 512 32s-182.4 36.6-248.8 103.2C196.6 201.6 160 290 160 384s36.6 182.4 103.2 248.8C329.6 699.4 418 736 512 736s182.4-36.6 248.8-103.2z"  horiz-adv-x="1024" />

    
    <glyph glyph-name="ios-arrow-back" unicode="&#59715;" d="M435.8 384L690 638c18.8 18.8 18.8 49.2 0 67.8-18.8 18.8-49.2 18.6-68 0L334 418c-18.2-18.2-18.6-47.4-1.4-66.2L621.8 62c9.4-9.4 21.8-14 34-14s24.6 4.6 34 14c18.8 18.8 18.8 49.2 0 67.8L435.8 384z"  horiz-adv-x="1024" />

    
    <glyph glyph-name="ios-arrow-dropdown-circle" unicode="&#59716;" d="M96 384c0-229.8 186.2-416 416-416s416 186.2 416 416S741.8 800 512 800 96 613.8 96 384z m578.2 86.8c15 15 39.6 15 54.6 0 7.6-7.6 11.2-17.4 11.2-27.2s-3.8-19.8-11.4-27.4l-188.6-188c-15.2-13.8-38.6-13.4-53.2 1.2l-191.4 190.8c-15 15-15.2 39.4 0 54.6 15 15 39.4 15.2 54.6 0l162.2-163.8 162 159.8z"  horiz-adv-x="1024" />

    
    <glyph glyph-name="ios-apps-outline" unicode="&#59717;" d="M308 736c6.6 0 12-5.4 12-12v-104c0-6.6-5.4-12-12-12h-104c-6.6 0-12 5.4-12 12V724c0 6.6 5.4 12 12 12h104m0 32h-104c-24.2 0-44-19.8-44-44v-104c0-24.2 19.8-44 44-44h104c24.2 0 44 19.8 44 44V724c0 24.2-19.8 44-44 44zM564 736c6.6 0 12-5.4 12-12v-104c0-6.6-5.4-12-12-12h-104c-6.6 0-12 5.4-12 12V724c0 6.6 5.4 12 12 12h104m0 32h-104c-24.2 0-44-19.8-44-44v-104c0-24.2 19.8-44 44-44h104c24.2 0 44 19.8 44 44V724c0 24.2-19.8 44-44 44zM820 736c6.6 0 12-5.4 12-12v-104c0-6.6-5.4-12-12-12h-104c-6.6 0-12 5.4-12 12V724c0 6.6 5.4 12 12 12h104m0 32h-104c-24.2 0-44-19.8-44-44v-104c0-24.2 19.8-44 44-44h104c24.2 0 44 19.8 44 44V724c0 24.2-19.8 44-44 44zM308 448c6.6 0 12-5.4 12-12v-104c0-6.6-5.4-12-12-12h-104c-6.6 0-12 5.4-12 12v104c0 6.6 5.4 12 12 12h104m0 32h-104c-24.2 0-44-19.8-44-44v-104c0-24.2 19.8-44 44-44h104c24.2 0 44 19.8 44 44v104c0 24.2-19.8 44-44 44zM564 448c6.6 0 12-5.4 12-12v-104c0-6.6-5.4-12-12-12h-104c-6.6 0-12 5.4-12 12v104c0 6.6 5.4 12 12 12h104m0 32h-104c-24.2 0-44-19.8-44-44v-104c0-24.2 19.8-44 44-44h104c24.2 0 44 19.8 44 44v104c0 24.2-19.8 44-44 44zM820 448c6.6 0 12-5.4 12-12v-104c0-6.6-5.4-12-12-12h-104c-6.6 0-12 5.4-12 12v104c0 6.6 5.4 12 12 12h104m0 32h-104c-24.2 0-44-19.8-44-44v-104c0-24.2 19.8-44 44-44h104c24.2 0 44 19.8 44 44v104c0 24.2-19.8 44-44 44zM308 160c6.6 0 12-5.4 12-12v-104c0-6.6-5.4-12-12-12h-104c-6.6 0-12 5.4-12 12v104c0 6.6 5.4 12 12 12h104m0 32h-104c-24.2 0-44-19.8-44-44v-104c0-24.2 19.8-44 44-44h104c24.2 0 44 19.8 44 44v104c0 24.2-19.8 44-44 44zM564 160c6.6 0 12-5.4 12-12v-104c0-6.6-5.4-12-12-12h-104c-6.6 0-12 5.4-12 12v104c0 6.6 5.4 12 12 12h104m0 32h-104c-24.2 0-44-19.8-44-44v-104c0-24.2 19.8-44 44-44h104c24.2 0 44 19.8 44 44v104c0 24.2-19.8 44-44 44zM820 160c6.6 0 12-5.4 12-12v-104c0-6.6-5.4-12-12-12h-104c-6.6 0-12 5.4-12 12v104c0 6.6 5.4 12 12 12h104m0 32h-104c-24.2 0-44-19.8-44-44v-104c0-24.2 19.8-44 44-44h104c24.2 0 44 19.8 44 44v104c0 24.2-19.8 44-44 44z"  horiz-adv-x="1024" />

    
    <glyph glyph-name="ios-arrow-dropup" unicode="&#59718;" d="M295.2 293.4c-15 15-15 39.6 0 54.6l191.4 190.8c14.6 14.6 38.2 15 53.2 1.2l188.6-188c7.6-7.6 11.4-17.4 11.4-27.4 0-9.8-3.8-19.8-11.2-27.2-15-15-39.4-15.2-54.6 0l-162 159.6-162.2-163.8c-15-15-39.4-15-54.6 0.2zM512-32c229.8 0 416 186.2 416 416S741.8 800 512 800 96 613.8 96 384s186.2-416 416-416z m0 64c-94 0-182.4 36.6-248.8 103.2C196.6 201.6 160 290 160 384s36.6 182.4 103.2 248.8C329.6 699.4 418 736 512 736s182.4-36.6 248.8-103.2C827.4 566.4 864 478 864 384s-36.6-182.4-103.2-248.8C694.4 68.6 606 32 512 32z"  horiz-adv-x="1024" />

    
    <glyph glyph-name="ios-american-football-outline" unicode="&#59719;" d="M757.21 629.21C611.804 774.618 378.76 800.004 233.7 800c-77.852-0.002-130.382-7.316-130.382-7.316s-59.968-430.454 163.472-653.894C412.198-6.618 645.234-32 790.298-32c77.852 0 130.384 7.316 130.384 7.316s59.97 430.452-163.472 653.894zM130.284 765.584C152.274 767.612 188.748 770 233.712 770H234l-0.136 0.142c54.334 0 106.334-3.508 155.584-10.44L136.248 506.54a1031.754 1031.754 0 0 0-5.28 44.492c-9.172 94.87-4.172 176.456-0.684 214.552zM287.8 159.796c-47.7 47.704-85.586 109.876-112.608 184.792-13.946 38.664-25.02 80.746-33.14 125.732L425.676 753.9c21.344-3.858 42.128-8.382 62.282-13.608 104.054-26.984 187.566-71.416 248.278-132.128 47.702-47.7 85.572-109.856 112.594-184.772 13.948-38.666 25.018-80.75 33.134-125.742L598.34 14.028c-21.32 3.86-42.082 8.382-62.208 13.602-104.06 26.978-187.612 71.452-248.332 132.166z m605.922-157.532c-21.988-2.024-58.46-4.55-103.42-4.55-54.384 0-106.45 3.54-155.752 10.5l253.214 253.214a1033.724 1033.724 0 0 0 5.276-44.466c9.176-94.874 4.172-176.596 0.682-214.698zM614.608 260.306l45.25-45.264-57.308-57.304 22.63-22.628 135.762 135.762-22.628 22.628-57.442-57.442-45.25 45.262 57.432 57.434-22.626 22.626-57.43-57.428-45.266 45.276 57.404 57.404-22.626 22.628-57.4-57.4-45.252 45.262 57.394 57.394-22.628 22.626-57.388-57.39-45.262 45.274 57.374 57.374-22.626 22.626-57.37-57.37-45.248 45.26 57.364 57.364-22.626 22.626-135.766-135.764 22.628-22.628 57.386 57.388 45.248-45.26-57.382-57.382 22.626-22.626 57.378 57.378 45.26-45.274-57.356-57.358 22.626-22.626 57.354 57.354 45.252-45.262-57.348-57.348 22.628-22.626 57.342 57.342 45.266-45.276-57.32-57.32 22.628-22.628z"  horiz-adv-x="1024" />

    
    <glyph glyph-name="ios-arrow-dropright-circle" unicode="&#59720;" d="M96 384c0-229.8 186.2-416 416-416s416 186.2 416 416S741.8 800 512 800 96 613.8 96 384z m489 0l-163.8 162.2c-15 15-15 39.6 0 54.6s39.6 15 54.6 0l190.8-191.4c14.6-14.6 15-38.2 1.2-53.2l-188-188.6c-7.6-7.6-17.4-11.4-27.4-11.4-9.8 0-19.8 3.8-27.2 11.2-15 15-15.2 39.4 0 54.6l159.8 162z"  horiz-adv-x="1024" />

    
    <glyph glyph-name="ios-arrow-dropright" unicode="&#59721;" d="M421.4 600.8c15 15 39.6 15 54.6 0l190.8-191.4c14.6-14.6 15-38.2 1.2-53.2l-188-188.6c-7.6-7.6-17.4-11.4-27.4-11.4-9.8 0-19.8 3.8-27.2 11.2-15 15-15.2 39.4 0 54.6l159.8 162.2-163.8 162.2c-15.2 14.8-15.2 39.2 0 54.4zM96 384c0-229.8 186.2-416 416-416s416 186.2 416 416S741.8 800 512 800 96 613.8 96 384z m64 0c0 94 36.6 182.4 103.2 248.8C329.6 699.4 418 736 512 736s182.4-36.6 248.8-103.2C827.4 566.4 864 478 864 384s-36.6-182.4-103.2-248.8C694.4 68.6 606 32 512 32s-182.4 36.6-248.8 103.2C196.6 201.6 160 290 160 384z"  horiz-adv-x="1024" />

    
    <glyph glyph-name="ios-aperture" unicode="&#59722;" d="M500.4 153.2c-3.6 0-5.4-4.4-2.8-6.8l109.8-109.8L652-8c84.8 30.4 157 87.4 206.2 161.2H500.4zM334 226.8V8c54-25.6 114.2-40 178-40 28.2 0 55.8 2.8 82.4 8.2L340.8 229.6c-2.4 2.6-6.8 0.8-6.8-2.8zM512 800c-27.8 0-54.8-2.8-81-8l253.6-253.6c2.6-2.6 6.8-0.8 6.8 2.8V759.4C637.2 785.4 576.4 800 512 800zM136.2 562.8C110.4 508.6 96 448 96 384c0-28.2 2.8-55.8 8.2-82.4L358.4 556c2.6 2.6 0.8 6.8-2.8 6.8H136.2zM373.4 776.2C288 746 215.4 688.8 166 614.6h359.4c3.6 0 5.4 4.4 2.8 6.8l-154.8 154.8zM334 454.8v-141.4c0-2.2 0.8-4.2 2.4-5.6l100-100c1.6-1.6 3.6-2.4 5.6-2.4h141.4c2.2 0 4.2 0.8 5.6 2.4l100 100c1.6 1.6 2.4 3.6 2.4 5.6v141.4c0 2.2-0.8 4.2-2.4 5.6l-100 100c-1.6 1.6-3.6 2.4-5.6 2.4H442c-2.2 0-4.2-0.8-5.6-2.4l-100-100c-1.4-1.6-2.4-3.6-2.4-5.6zM920 465L667.2 212c-2.6-2.6-0.8-6.8 2.8-6.8h217.6c26 54.2 40.4 114.8 40.4 178.8 0 27.8-2.8 54.8-8 81zM743.6 729.6v-358c0-3.6 4.4-5.4 6.8-2.8l153.8 153.8c-30 85.2-87 157.6-160.6 207zM120.2 244.2c30.4-85.2 87.8-157.6 162-206.8V396.4c0 3.6-4.4 5.4-6.8 2.8l-155.2-155z"  horiz-adv-x="1024" />

    
    <glyph glyph-name="ios-arrow-round-back" unicode="&#59723;" d="M432.8 568.6c10.2-10 10.2-26.6 0.2-36.8L311.6 410h462.6c14.2 0 25.8-11.6 25.8-26s-11.6-26-25.8-26H311.6l121.6-121.8c10-10.2 9.8-26.6-0.2-36.8-10.2-10-26.4-10-36.6 0.2l-164.8 166c-2.2 2.4-4 5-5.4 8.2-1.4 3.2-2 6.6-2 10 0 6.8 2.6 13.2 7.4 18.2l164.8 166c9.8 10.4 26.2 10.6 36.4 0.6z"  horiz-adv-x="1024" />

    
    <glyph glyph-name="ios-arrow-dropup-circle" unicode="&#59724;" d="M512-32c229.8 0 416 186.2 416 416S741.8 800 512 800 96 613.8 96 384s186.2-416 416-416z m0 489l-162.2-163.8c-15-15-39.6-15-54.6 0s-15 39.6 0 54.6l191.4 190.8c14.6 14.6 38.2 15 53.2 1.2l188.6-188c7.6-7.6 11.4-17.4 11.4-27.4 0-9.8-3.8-19.8-11.2-27.2-15-15-39.4-15.2-54.6 0l-162 159.8z"  horiz-adv-x="1024" />

    
    <glyph glyph-name="ios-arrow-dropleft" unicode="&#59725;" d="M602.6 600.8c-15 15-39.6 15-54.6 0l-190.8-191.4c-14.6-14.6-15-38.2-1.2-53.2l188-188.6c7.6-7.6 17.4-11.4 27.4-11.4 9.8 0 19.8 3.8 27.2 11.2 15 15 15.2 39.4 0 54.6l-159.6 162 163.8 162.2c15 15 15 39.4-0.2 54.6zM512 800C282.2 800 96 613.8 96 384s186.2-416 416-416 416 186.2 416 416S741.8 800 512 800z m248.8-664.8C694.4 68.6 606 32 512 32s-182.4 36.6-248.8 103.2C196.6 201.6 160 290 160 384s36.6 182.4 103.2 248.8C329.6 699.4 418 736 512 736s182.4-36.6 248.8-103.2C827.4 566.4 864 478 864 384s-36.6-182.4-103.2-248.8z"  horiz-adv-x="1024" />

    
    <glyph glyph-name="ios-arrow-round-up" unicode="&#59726;" d="M696.6 463.2c-10-10.2-26.6-10.2-36.8-0.2L538 584.4v-462.6c0-14.2-11.6-25.8-26-25.8s-26 11.6-26 25.8V584.4l-121.8-121.6c-10.2-10-26.6-9.8-36.8 0.2-10 10.2-10 26.4 0.2 36.6l166 164.8c2.4 2.2 5 4 8.2 5.4 3.2 1.4 6.6 2 10 2 6.8 0 13.2-2.6 18.2-7.4l166-164.8c10.4-9.8 10.6-26.2 0.6-36.4z"  horiz-adv-x="1024" />

    
    <glyph glyph-name="ios-arrow-round-down" unicode="&#59727;" d="M696.6 304.8c-10 10.2-26.6 10.2-36.8 0.2L538 183.6V646.2c0 14.2-11.6 25.8-26 25.8s-26-11.6-26-25.8v-462.6l-121.8 121.6c-10.2 10-26.6 9.8-36.8-0.2-10-10.2-10-26.4 0.2-36.6l166-164.8c2.4-2.2 5-4 8.2-5.4 3.2-1.4 6.6-2 10-2 6.8 0 13.2 2.6 18.2 7.4l166 164.8c10.4 9.8 10.6 26.2 0.6 36.4z"  horiz-adv-x="1024" />

    
    <glyph glyph-name="ios-arrow-forward" unicode="&#59728;" d="M588.2 384L334 638c-18.8 18.8-18.8 49.2 0 67.8s49.2 18.6 68 0L690 418c18.2-18.2 18.6-47.4 1.4-66.2L402.2 62c-9.4-9.4-21.8-14-34-14s-24.6 4.6-34 14c-18.8 18.8-18.8 49.2 0 67.8l254 254.2z"  horiz-adv-x="1024" />

    
    <glyph glyph-name="ios-arrow-up" unicode="&#59729;" d="M512 460.2L766 206c18.8-18.8 49.2-18.8 67.8 0 18.8 18.8 18.6 49.2 0 68L546 562c-18.2 18.2-47.4 18.6-66.2 1.4L190 274.2c-9.4-9.4-14-21.8-14-34s4.6-24.6 14-34c18.8-18.8 49.2-18.8 67.8 0l254.2 254z"  horiz-adv-x="1024" />

    
    <glyph glyph-name="ios-arrow-round-forward" unicode="&#59730;" d="M591.2 568.6c-10.2-10-10.2-26.6-0.2-36.8l121.6-121.8H249.8c-14.2 0-25.8-11.6-25.8-26s11.6-26 25.8-26h462.6l-121.6-121.8c-10-10.2-9.8-26.6 0.2-36.8 10.2-10 26.4-10 36.6 0.2l164.8 166c2.2 2.4 4 5 5.4 8.2 1.4 3.2 2 6.6 2 10 0 6.8-2.6 13.2-7.4 18.2l-164.8 166c-9.8 10.4-26.2 10.6-36.4 0.6z"  horiz-adv-x="1024" />

    
    <glyph glyph-name="ios-at-outline" unicode="&#59731;" d="M867.8 206.8C802 79.2 672.6 0 530.2 0c-101 0-194.6 39.8-263.8 112.2-68.8 72-106.6 168.4-106.6 271.8s37.8 199.8 106.6 271.8C335.6 728.2 429.4 768 530.2 768c101.8 0 187.8-38.6 242.2-108.4 52.6-67.6 69-156.2 46.4-249.8-21.8-90.2-67-131.6-101-150.4-35-19.4-83.6-26.8-104.8-8.8-0.6 0.6-1.2 1.2-1.6 1.8-3 3.8-4.6 10.8-4.8 17-0.2 6.2 0.4 13.4 2 21.4 1.6 8 3.8 16.8 6.4 25.4L692.2 550h-42.6l-20-53c-9.2 24.2-21.2 41.6-36.2 52-15 10.6-31.4 15.8-49 15.8-28.4 0-54.4-7-77.8-20.8-23.6-13.8-43.6-31.8-60.2-54.2-16.6-22.4-29.4-47.6-38.6-75.4-9.2-27.8-13.6-55.8-13.6-83.8 0-16.2 2.4-31.4 7.2-45.4 4.8-14 11.8-26.4 20.8-37.2 9-10.8 20.2-19.4 33.4-25.6 13.2-6.2 28-9.4 44.6-9.4 20.4 0 39.4 5.4 57 16.8s32.6 24.2 45 36.2h1.6c1.6-18 9.4-31 19.6-40.2 5.2-4.6 12.6-9 22.2-12.2v-0.2c42.2-14.4 84.2-6 127.6 18 39.6 22 92.2 69.4 116.6 171 25 103.2 6.4 201.6-52.4 277.2C737 757.2 642 800 530.2 800c-109.6 0-211.4-43.4-286.6-122C169 600 128 495.6 128 384s41-216 115.6-294c75.2-78.8 177.2-122 286.6-122 154.2 0 294.4 85.8 365.8 224l-28.2 14.8z m-300.8 116.4c-12.2-19.6-26.6-36-43-49.6-16.4-13.4-34-20.2-53.2-20.2-19.6 0-35.8 7.2-48.6 21.4-12.8 14.4-19.2 33.8-19.2 58.6 0 19.2 3.2 40 9.8 62.4 6.6 22.2 16 43 28.2 62s27 34.8 44.2 47.4c17.2 12.6 36.2 19 56.8 19 8.2 0 16-2.2 23.8-6.6 7.6-4.4 14.4-10.2 20.4-17.4 6-7.2 11-15.2 14.8-24.4 3.8-9 5.8-18.6 5.8-28.4 0-18.2-3.6-38.6-10.6-61.2-7.2-22.4-17-43.4-29.2-63z"  horiz-adv-x="1024" />

    
    <glyph glyph-name="ios-attach" unicode="&#59732;" d="M711.8 573.8c-17.2 0-31.2-14-31.2-31.2v-388.8c0-40.6-16-80.8-44-110.2-27.8-29.2-70.4-47.4-111-47.4h-27.2c-39.2 0-79 17.8-109.6 49.2-30.4 31-47.8 71.2-47.8 110.4V657.4c0 29.8 12.4 57.8 34.6 79 22.2 21 51.4 32.6 82 32.6 30.2 0 58.6-11.6 79.6-32.4 21-21 32.8-49.2 32.8-79.2v-468.4c0-34.2-27.2-64.4-58-64.4-27.2 0-56.4 25.8-56.4 64.4V456.2c0 17.2-14 31.2-31.2 31.2s-31.2-14-31.2-31.2v-267.2c0-71 51-124.6 118.8-124.6 33 0 63.4 12.2 85.4 34.6 22.6 22.8 35 54.8 35 90V657.4c0 46.8-18.2 90.8-51.4 123.6C548 814 504 832 457 832s-91-18-124.4-51c-33.4-33-51.8-76.8-51.8-123.8v-501.6c0-57.4 24.4-115.8 65.2-156 41.8-41.2 95.8-63.8 152.2-63.8h27.2c55.2 0 110.6 23.4 151.8 64.2 20.4 20.2 36.4 43.4 47.8 69.2 11.8 27 17.8 55.4 17.8 84.2V542.6c0.2 17.2-13.8 31.2-31 31.2z"  horiz-adv-x="1024" />

    
    <glyph glyph-name="ios-at" unicode="&#59733;" d="M896 427.4c0-148.2-69.4-241.6-179.2-241.6-56.2 0-99 30-106.4 74.6h-8c-19.8-46.4-60.6-71.8-115.4-71.8-97.6 0-162.8 78.2-162.8 194.6 0 111.8 65.6 189.6 161.4 189.6 49.2 0 91-24.8 109.4-65.4h8v55.6h79.8v-258.6c0-32.2 17.8-51.6 49.8-51.6 55.4 0 90.6 67.2 90.6 171.6 0 166.6-124.8 278-309.2 278-182.4 0-312.4-133-312.4-321.2 0-192.4 128.6-315.2 328.8-315.2 39.2 0 78.6 3.4 108.8 9.2 19.6 3.6 37.6-11.2 37.6-31 0-14.6-10-27.4-24.2-30.8-36.4-8.6-80.2-13.6-125.4-13.6C283.8 0 128 150.4 128 383.8 128 611.6 287 768 518.8 768 741.6 768 896 629 896 427.4z m-485.6-46c0-74 34.8-118.8 91.4-118.8 59.6 0 97.2 46 97.2 118.8s-37.6 117.8-96.2 117.8c-58.2 0-92.4-43.6-92.4-117.8z"  horiz-adv-x="1024" />

    
    <glyph glyph-name="ios-backspace-outline" unicode="&#59734;" d="M790 704H460c-93.4 0-146.4-69.4-204-127s-144.2-149.4-144.2-149.4C102 416.4 96 402 96 385.8c0-16 6-30.6 15.8-42 0 0 68.6-75.2 144.2-151 75.6-75.6 113.4-129 204-129h330c77 0 138 65 138 142V566c0 77-61 138-138 138z m106-498c0-29-10.6-56.8-31-77.4-20.2-20.8-46.6-32.6-75-32.6H460c-65.2 0-96.4 32.6-153 90.8l-171.4 178.4C132 369.4 128 376.4 128 386c0 9.4 4 16.4 7.6 20.6l166.2 172.2c24.4 25.4 47.6 49 73.8 66.6 27.6 18.6 54.4 26.8 84.4 26.8h330c28.6 0 55-10.6 75.2-30.8 20.2-20.2 30.8-46.6 30.8-75.2V206zM632.8 384l127.2 126.8-29.2 29.2-127.2-127-126.4 126.4-29.2-29.2 126.6-126.2-126.6-126.4 29.2-29 126.4 126.2 127.2-126.8 29.2 29z"  horiz-adv-x="1024" />

    
    <glyph glyph-name="ios-backspace" unicode="&#59735;" d="M790 704H460c-93.4 0-146.4-69.4-204-127s-144.2-149.4-144.2-149.4C102 416.4 96 402 96 385.8c0-16 6-30.6 15.8-42 0 0 68.6-75.2 144.2-151 75.6-75.6 113.4-129 204-129h330c77 0 138 65 138 142V566c0 77-61 138-138 138z m-35.4-425.4c12.4-12.4 12.4-32.8 0-45.2-12.4-12.4-32.8-12.4-45.2 0L604 338.8l-105.4-105.4c-12.4-12.4-32.6-12.8-45.2 0-12.8 12.8-13.4 31.8 0 45.2l105.4 105.4-105.4 105.4c-12 12-14.2 31.2 0 45.2 14.2 14.2 32.8 12.4 45.2 0l105.4-105.4 105.4 105.4c12.4 12.4 32.8 12.4 45.2 0 12.4-12.4 12.4-32.8 0-45.2L649.2 384l105.4-105.4z"  horiz-adv-x="1024" />

    
    <glyph glyph-name="ios-barcode-outline" unicode="&#59736;" d="M96 128h160v32H128V608h128v32H96zM768 640v-32h128v-448h-128v-32h160V640zM224 512h32v-256h-32zM768 512h32v-256h-32zM640 576h32v-384h-32zM352 576h32v-384h-32zM494 544h32v-320h-32z"  horiz-adv-x="1024" />

    
    <glyph glyph-name="ios-barcode" unicode="&#59737;" d="M243.2 120H161.6c-4.4 0-8 3.6-8 8V640c0 4.4 3.6 8 8 8h81c15.8 0 29 12.8 29.4 28 0.2 7.8-2.6 14.4-8.2 20-5.4 5.6-16 8-23.8 8H132c-20 0-36-12-36-32v-576c0-20 14-32 34-32h112.6c15.8 0 29 10.4 29.4 25.6 0.2 7.8-2.6 15-8.2 20.6-5.4 5.6-12.8 9.8-20.6 9.8zM894 704h-112.6c-19 0-34.2-16.6-28-36.6 0.4-1.4 1-2.6 1.6-3.8 5.4-10.4 15.2-15.6 25.8-15.6h81.6c4.4 0 8-3.6 8-8v-511.8c0-4.4-3.6-8-8-8h-81c-15.8 0-29-12.4-29.4-27.8-0.2-7.8 2.6-15.2 8.2-20.8 5.4-5.6 12.8-7.6 20.6-7.6H894c20 0 34 12 34 32.8V672c0 20-14 32-34 32zM245 544c-15.4 0-28-12.6-28-27.8V252c0-15.4 12.6-27.8 28-27.8s28 12.6 28 27.8V516.2c0 15.2-12.6 27.8-28 27.8zM779 224c15.4 0 28 12.6 28 27.8V516.2c0 15.4-12.6 27.8-28 27.8s-28-12.6-28-27.8V252c0-15.4 12.6-28 28-28zM653 608c-15.4 0-28-13-28-28.8v-390.2c0-16 12.6-28.8 28-28.8s28 13 28 28.8V579.2c0 15.8-12.6 28.8-28 28.8zM371 608c-15.4 0-28-13-28-28.8v-390.2c0-16 12.6-28.8 28-28.8s28 13 28 28.8V579.2c0 15.8-12.4 28.8-28 28.8zM512 576c-15.4 0-28-12.8-28-28.4v-327c0-15.6 12.6-28.4 28-28.4s28 12.8 28 28.4V547.6c0 15.6-12.6 28.4-28 28.4z"  horiz-adv-x="1024" />

    
    <glyph glyph-name="ios-baseball" unicode="&#59738;" d="M512.6 747.6l19.4 6.2c9.4 3 19.4-2.2 22.4-11.4l0.2-0.8c3-9.4-2.2-19.4-11.4-22.4L520.2 712c-4.2-1.4-6.4-5.8-5.2-9.8 4.2-13.8 9-27.4 14.4-41 3.8-9.2 7.8-18.4 12.2-27.4 2.2-4.4 7.6-6 11.8-3.2l17 11.6c8.2 5.4 19.2 3.4 24.6-4.8l0.4-0.6c5.4-8.2 3.4-19.2-4.8-24.6l-20.8-14.2a8 8 0 0 1-2.4-10.8c14-22 29.8-43 47.4-62.6 3-3.4 8.4-3.6 11.6-0.4l15 15c7 7 18.2 7 25 0l0.6-0.6c7-7 7-18.2 0-25l-15-15c-3.2-3.2-3-8.6 0.4-11.6 20.4-18.2 42-34.6 65-48.8a8 8 0 0 1 10.8 2.4l13.8 20.4c5.4 8.2 16.6 10.2 24.6 4.8l0.6-0.4c8.2-5.4 10.2-16.6 4.8-24.6l-11-16.2c-2.8-4-1.2-9.6 3.2-11.8 8.2-3.8 16.4-7.6 24.8-11 14.2-5.8 28.6-10.8 43.4-15.2 4.2-1.2 8.6 1 10 5.2l7 21.6c3 9.4 13 14.4 22.4 11.4l0.8-0.2c9.4-3 14.4-13 11.4-22.4l-5.6-17.6c-1.4-4.6 1.4-9.4 6.2-10.4 14.2-2.6 28.6-4.6 43-5.8 0.2 5.2 0.4 10.6 0.4 15.8 0 229.8-186.2 416-416 416-5.4 0-10.6-0.2-16-0.4 1.4-15.4 3.4-30.6 6.2-45.8 0.8-5 5.8-7.8 10.4-6.4zM516 1.6c-0.8 4.8-5.6 7.8-10.4 6.4l-23.2-7.4c-9.4-3-19.4 2.2-22.4 11.4l-0.2 0.8c-3 9.4 2.2 19.4 11.4 22.4l27.6 8.8c4 1.4 6.4 5.6 5.2 9.8-4.6 15.8-10 31.2-16.2 46.6-3.2 8-6.6 15.8-10.4 23.6-2 4.4-7.6 6-11.8 3.2l-21.8-14.8c-8.2-5.4-19.2-3.4-24.6 4.8l-0.4 0.6c-5.4 8.2-3.4 19.2 4.8 24.6l26 17.6a8 8 0 0 1 2.4 10.8c-14.4 23.4-31 45.4-49.6 66.2-3 3.4-8.4 3.6-11.6 0.4l-19.8-19.8c-7-7-18.2-7-25 0l-0.6 0.6c-7 7-7 18.2 0 25l19.8 19.8c3.2 3.2 3 8.6-0.4 11.6-20 18-41.2 34-63.8 48a8 8 0 0 1-10.8-2.4l-18-26.6c-5.4-8.2-16.6-10.2-24.6-4.8l-0.6 0.4c-8.2 5.4-10.2 16.6-4.8 24.6l15.2 22.6c2.8 4 1.2 9.6-3.2 11.8-8.6 4.2-17.2 8-26.2 11.6-14.6 5.8-29.2 11-44.2 15.4-4 1.2-8.6-1.2-9.8-5.2l-9.2-28.8c-3-9.4-13-14.4-22.4-11.4l-0.8 0.2c-9.4 3-14.4 13-11.4 22.4l8 24.8c1.4 4.6-1.4 9.6-6.2 10.4-11.6 2-23.4 3.6-35.2 4.8-0.2 0-0.6 0-0.8 0.2v-8.4c0-229.8 186.2-416 416-416h8.4c0 0.2-0.2 0.6-0.2 0.8-1 10.8-2.4 21.8-4.2 32.6zM862.2 334.2l-11.8-36.8c-3-9.4-13-14.4-22.4-11.4l-0.8 0.2c-9.4 3-14.4 13-11.4 22.4l10.6 33.2c1.4 4.2-1 8.8-5.4 10.2-27 8-53.6 18.4-79.4 31.2-3.6 1.8-8 0.6-10.2-2.6l-21-30.8c-5.4-8.2-16.6-10.2-24.6-4.8l-0.6 0.4c-8.2 5.4-10.2 16.6-4.8 24.6l18.4 27.2c2.6 3.8 1.4 8.8-2.4 11.2-24.6 15.4-48.2 33.2-70.4 53.4-3.2 2.8-8 2.8-11-0.2L589.4 436c-7-7-18.2-7-25 0l-0.6 0.6c-7 7-7 18.2 0 25l25.6 25.6c3 3 3.2 7.8 0.2 11-19.4 21.6-36.8 44.4-52 68-2.4 3.8-7.6 5-11.2 2.4l-26.6-18c-8.2-5.4-19.2-3.4-24.6 4.8l-0.4 0.6c-5.4 8.2-3.4 19.2 4.8 24.6l30.2 20.4c3.4 2.2 4.4 6.6 2.6 10.2-12.8 25.8-23.4 52.4-31.6 79.4-1.4 4.2-5.8 6.8-10.2 5.4l-31.8-10.2c-9.4-3-19.4 2.2-22.4 11.4l-0.2 0.8c-3 9.4 2.2 19.4 11.4 22.4l35.2 11.2c3.8 1.2 6.2 5.2 5.4 9.2-3.6 18.4-6.2 37.2-7.8 55.8-190.8-23.6-341.6-176.4-362-368.2h2c15-1.4 30-3.6 44.8-6.4 4-0.8 8 1.6 9.2 5.4l9.4 29.6c3 9.4 13 14.4 22.4 11.4l0.8-0.2c9.4-3 14.4-13 11.4-22.4l-8.4-26c-1.4-4.4 1-8.8 5.4-10.2 27.8-8.2 55-18.8 81.4-32 3.6-1.8 8-0.6 10.2 2.6l16.6 24.6c5.4 8.2 16.6 10.2 24.6 4.8l0.6-0.4c8.2-5.4 10.2-16.6 4.8-24.6l-14.2-21c-2.6-3.8-1.4-8.8 2.4-11.2 24.2-15.4 47.4-32.8 69.2-52.6 3.2-2.8 8-2.8 11 0.2l20.8 20.8c7 7 18.2 7 25 0l0.6-0.6c7-7 7-18.2 0-25L428 274.4c-3-3-3.2-7.8-0.2-11 20.4-22.6 38.4-46.6 54-71.6 2.4-4 7.4-5 11.4-2.4l21.6 14.6c8.2 5.4 19.2 3.4 24.6-4.8l0.4-0.6c5.4-8.2 3.4-19.2-4.8-24.6l-25.4-17.2c-3.4-2.2-4.4-6.6-2.6-10.2 12.8-26.4 23.4-53.4 31.4-81.2 1.2-4.4 5.8-6.8 10.2-5.4l27.2 8.8c9.4 3 19.4-2.2 22.4-11.4l0.2-0.8c3-9.4-2.2-19.4-11.4-22.4l-31.2-10c-3.8-1.2-6.2-5.2-5.4-9.2 2.6-14 4.6-28.2 6-42.4v-2c191.8 20.4 344.6 171.2 368.2 362-17.8 1.4-35.8 3.8-53.4 7.2-3.8 0.6-7.8-1.8-9-5.6z"  horiz-adv-x="1024" />

    
    <glyph glyph-name="ios-battery-charging" unicode="&#59739;" d="M792 608H128c-52.8 0-96-43.2-96-96v-256c0-52.8 43.2-96 96-96h664c52.8 0 96 43.2 96 96V512c0 52.8-43.2 96-96 96z m40-352c0-22-18-40-40-40H128c-22 0-40 18-40 40V512c0 22 18 40 40 40h664c22 0 40-18 40-40v-256zM928 486.8v-205.6c32 0 64 55.4 64 102.8s-32 102.8-64 102.8zM768 512H152c-13.2 0-24-10.8-24-24v-208c0-13.2 10.8-24 24-24h616c13.2 0 24 10.8 24 24V488c0 13.2-10.8 24-24 24zM437.6 280l16.8 86H400l90.4 122-16.8-86H528l-90.4-122z"  horiz-adv-x="1024" />

    
    <glyph glyph-name="ios-basketball" unicode="&#59740;" d="M437.2 283.2c28.6 23.6 56.6 48.8 82.8 75.2l12.2 12.2c-5.6 5.8-11.2 11.6-16.6 17-99.8 99.8-215.4 179.2-343.6 236.2-36.8-52.2-62-113.2-71.6-179.2 64.4-4.6 126.4-21 184.4-49 57.6-27.8 108.8-65.6 152.4-112.4zM652.2 524.8c1-1 2.2-2.2 3.4-3.2 41.8 61 77.6 126.4 107 194.8-67.6 51-151.2 82-242 83.8 4.8-44.6 16-88.2 33.4-129.4 23-54.8 56.2-104 98.2-146zM798 426.4c41.4-17.6 85.2-28.8 130-33.4-2.4 112.6-49.6 214.2-124.4 287.8-30-67.6-66.6-132.6-108.8-193.6 31.6-24.8 66.4-45.2 103.2-60.8zM387.8 259.8c-42.2 42.2-91.2 75.2-145.8 98.4-46.4 19.6-95.4 31.2-145.8 34.8 0-3-0.2-6-0.2-8.8 0-97.4 33.4-187 89.6-257.8 74.6 34 145.4 75.8 210.8 124.8-3 2.8-5.8 5.8-8.6 8.6zM567.6 408.8c20.2 22.6 39.4 46.2 57.6 70.2-89 84.6-144.2 197.2-156.4 319-103.8-10.8-196.2-59.6-263-132.4 66.8-30.6 131-67.6 191.2-110.2 61-43.4 118.4-92.6 170.6-146.6zM602.8 370.4c77.8-88 141.8-186.4 190.6-292.8 72.8 67 121.8 159.6 132.4 263.4-95.4 9.4-185.6 45.2-261.6 104-19.2-25.4-40-50.6-61.4-74.6zM470.6 243.6c59.8-79 95-172.4 102-271.2 66 9.6 127 34.8 179 71.6-46.8 105.2-108.6 202-184.4 288.4-30.4-31.2-62.8-61-96.6-88.8zM429.8 211.4c-64.8-48.8-134.8-91-208-125.6 75-73 177.2-118 290.2-118 3 0 6 0 9 0.2-3.6 50.4-15.2 99.4-34.8 145.8-14.8 35-33.6 67.6-56.4 97.6z"  horiz-adv-x="1024" />

    
    <glyph glyph-name="ios-basket-outline" unicode="&#59741;" d="M800 448v192c0 70.4-57.6 128-128 128H352c-70.4 0-128-57.6-128-128v-192H64l105-388.6c9.4-34 40.8-59.4 78.2-59.4h529.4c37.4 0 68.8 25 78.6 59L960 448h-160z m118-32h0.2l-25.8-96H736v96h182zM140.4 288H288v-128H175l-34.6 128z m179.6 0h176v-128h-176v128z m384 32h-176v96h176v-96z m-208 0h-176v96h176v-96z m0-192v-96h-176v96h176z m32 0h176v-96h-176v96z m0 32v128h176v-128h-176z m208 128h147.8l-34.4-128H736v128zM256 640c0 25.6 10 49.6 28.2 67.8C302.4 726 326.4 736 352 736h320c25.6 0 49.6-10 67.8-28.2 18.2-18.2 28.2-42.2 28.2-67.8v-192H256v192z m32-224v-96H131.8l-26 96H288z m-88-348.2L183.6 128H288v-96h-40.8c-22 0-41.4 14.6-47.2 35.8z m624.6-0.2c-6.2-21-25.8-35.6-47.8-35.6H736v96h104.8l-16.2-60.4z"  horiz-adv-x="1024" />

    
    <glyph glyph-name="ios-battery-dead" unicode="&#59742;" d="M792 608H128c-52.8 0-96-43.2-96-96v-256c0-52.8 43.2-96 96-96h664c52.8 0 96 43.2 96 96V512c0 52.8-43.2 96-96 96z m40-352c0-22-18-40-40-40H128c-22 0-40 18-40 40V512c0 22 18 40 40 40h664c22 0 40-18 40-40v-256zM928 486.8v-205.6c32 0 64 55.4 64 102.8s-32 102.8-64 102.8z"  horiz-adv-x="1024" />

    
    <glyph glyph-name="ios-battery-full" unicode="&#59743;" d="M792 608H128c-52.8 0-96-43.2-96-96v-256c0-52.8 43.2-96 96-96h664c52.8 0 96 43.2 96 96V512c0 52.8-43.2 96-96 96z m40-352c0-22-18-40-40-40H128c-22 0-40 18-40 40V512c0 22 18 40 40 40h664c22 0 40-18 40-40v-256zM928 486.8v-205.6c32 0 64 55.4 64 102.8s-32 102.8-64 102.8zM768 512H152c-13.2 0-24-10.8-24-24v-208c0-13.2 10.8-24 24-24h616c13.2 0 24 10.8 24 24V488c0 13.2-10.8 24-24 24z"  horiz-adv-x="1024" />

    
    <glyph glyph-name="ios-baseball-outline" unicode="&#59744;" d="M925.372 337.262c0.264 2.364 0.514 4.73 0.738 7.108l0.022 0.234c1.218 12.97 1.868 26.106 1.868 39.396 0 229.726-186.26 416-416 416-15.902 0-31.584-0.924-47.024-2.662l-0.54-0.056v-0.006C270.414 775.182 116.884 619.602 97.978 424.626h-0.008c-0.144-1.496-0.262-2.994-0.39-4.492a411.564 411.564 0 0 1-0.706-9.486c-0.052-0.836-0.112-1.67-0.16-2.508a440.932 440.932 0 0 1-0.326-6.742l-0.064-1.686A422.232 422.232 0 0 1 96 384c0-229.726 186.274-416 416-416 5.254 0 10.478 0.13 15.686 0.324 0.586 0.022 1.172 0.042 1.756 0.066 2.22 0.092 4.438 0.196 6.648 0.32 0.908 0.05 1.812 0.116 2.718 0.172 3.208 0.206 6.402 0.444 9.59 0.72 1.408 0.122 2.82 0.23 4.226 0.368v0.008c194.988 18.904 350.558 172.432 372.652 366.458h0.008c0.032 0.274 0.056 0.55 0.088 0.826zM893.33 384c0-5.136-0.132-10.244-0.334-15.332a415.43 415.43 0 0 0-61.228 7.328l12.22 38.112-30.464 9.768-12.976-40.47a415.64 415.64 0 0 0-44.884 15.276 414.848 414.848 0 0 0-29.25 13.208l23.036 34.006-26.494 17.948-24.718-36.492c-24.482 14.7-47.406 31.954-68.61 51.624l29.46 29.46-22.626 22.626-29.46-29.46c-19.11 20.594-35.928 42.816-50.35 66.508l36.974 25.044-17.944 26.492-34.648-23.47a415.638 415.638 0 0 0-14.348 31.48 416.15 416.15 0 0 0-14.654 42.704l41.624 13.346-9.77 30.468-39.422-12.64a415.638 415.638 0 0 0-7.792 63.458c5.088 0.202 10.194 0.334 15.33 0.334C722.264 765.33 893.33 594.262 893.33 384z m-762.656 0c0 2.634 0.046 5.258 0.1 7.878a415.402 415.402 0 0 0 53.782-6.818l-14.23-44.382 30.47-9.77 15 46.782a416.112 416.112 0 0 0 45.476-15.442 415.026 415.026 0 0 0 30.394-13.792l-26.81-39.58 26.492-17.946 28.438 41.984c24.076-14.558 46.64-31.586 67.53-50.966l-33.706-33.706 22.626-22.628 33.708 33.708c19.936-21.488 37.4-44.738 52.228-69.592l-41.506-28.116 17.944-26.492 38.946 26.38a416.516 416.516 0 0 0 28.726-75.788l-45.664-14.64 9.768-30.466 43.062 13.806a415.396 415.396 0 0 0 6.43-51.644c-2.622-0.052-5.244-0.1-7.878-0.1C301.74 2.672 130.672 173.74 130.674 384z m421.112-379.258a450.182 450.182 0 0 1-7.718 59.492l48.2 15.454-9.768 30.464-45.792-14.682a445.46 445.46 0 0 1-32.468 84.108l40.344 27.328-17.946 26.492-37.976-25.724a447.672 447.672 0 0 1-56.08 74.29l34.162 34.162-22.626 22.626-34.164-34.162a447.918 447.918 0 0 1-72.216 54.828l25.392 37.486-26.492 17.944-26.892-39.7a445.364 445.364 0 0 1-84.188 32.988l14.316 44.65-30.47 9.77-15.04-46.904a449.964 449.964 0 0 1-61.62 8.134C151.08 599.86 289.728 740.694 464.79 762.408a450.024 450.024 0 0 1 9.086-70.678l-51.87-16.632 9.77-30.468 49.806 15.97a445.346 445.346 0 0 1 32.772-82.492l-44.644-30.242 17.946-26.492 42.472 28.77c15.376-25.056 33.47-48.91 54.232-71.18l-38.408-38.408 22.626-22.628 38.408 38.41a447.936 447.936 0 0 1 73.294-55.49l-29.11-42.972 26.496-17.948 30.656 45.256a445.28 445.28 0 0 1 82.458-32.236l-16.336-50.954 30.464-9.768 17.05 53.18a450.19 450.19 0 0 1 68.448-8.62c-21.712-175.06-162.546-313.706-338.62-332.044z"  horiz-adv-x="1024" />

    
    <glyph glyph-name="ios-beaker" unicode="&#59745;" d="M890.4 800H257C148.2 800 128 744.2 128 719.6c60.6-8.4 64-8.4 64-72.4v-551c0-70.6 57.8-128 128.4-128H736c70.8 0 126 58.4 126 129V717.6c4 35 25 63.2 27.2 66.6 2.4 3.8 6.8 8.8 6.8 11 0 2.4-0.6 4.8-5.6 4.8z m-666-58.6c0 0.2 0 0.2 0 0 12 2 24 2.6 32.6 2.6H810c-1.8-7.4-3-14.2-3.6-20-0.2-2.2-0.4-4.2-0.4-6.4v-141.8 0.2H248v71c0 35.2 0 68.4-23.6 94.4z"  horiz-adv-x="1024" />

    
    <glyph glyph-name="ios-basketball-outline" unicode="&#59746;" d="M512 800C282.274 800 96 613.728 96 384s186.274-416 416-416c229.742 0 416 186.276 416 416S741.742 800 512 800z m381.328-416l-0.004-0.29c-44.63 3.442-87.978 13.944-129.24 31.398a413.812 413.812 0 0 0-98.958 59.268 1054.064 1054.064 0 0 1 105.648 189.43c75.316-69.706 122.554-169.338 122.554-279.806z m-148.116 301.478c-0.56-1.352-1.1-2.708-1.67-4.056-27.816-65.766-62.124-127.912-102.572-185.974a430.818 430.818 0 0 0-9.126 8.826c-38.214 38.214-68.214 82.708-89.166 132.24-17.394 41.126-27.866 84.326-31.342 128.802 0.222 0 0.442 0.008 0.664 0.008 87.768 0.002 168.694-29.822 233.212-79.846zM479.35 763.912c8.862-116.252 62.088-220.082 142.782-294.624a1026.788 1026.788 0 0 0-60.638-73.93c-95.108 100.064-209.63 181.492-337.534 238.264 63.272 72.912 153.706 121.628 255.39 130.29z m82.024-415.592c72.458-81.34 130.96-172.876 174.37-272.906-50.8-36.934-111.02-61.658-176.324-69.796-4.544 95.632-39.042 183.414-94.358 254.142a1063.074 1063.074 0 0 1 96.312 88.56z m-37.296 7.602a1037.398 1037.398 0 0 0-79.556-71.74c-77.474 85.77-187.662 141.412-310.9 147.27 8.14 65.292 32.864 125.5 69.792 176.292 118.39-51.376 224.89-123.894 316.664-215.666a1047.26 1047.26 0 0 0 19.624-20.178 1049.408 1049.408 0 0 0-15.624-15.978zM131.016 399.54c50.476-2.29 98.872-13.594 142.9-32.218 49.534-20.952 94.026-50.952 132.24-89.166a425.08 425.08 0 0 0 13.168-13.79c-62.828-47.83-130.854-88.098-203.416-120.364C162.644 209.59 130.672 293.126 130.672 384c0 5.208 0.136 10.382 0.344 15.54z m107.118-280.592a1055.552 1055.552 0 0 1 201.828 121.042 413.87 413.87 0 0 0 55.36-94.074c19.228-45.458 30.026-93.448 32.228-142.9-5.16-0.208-10.34-0.344-15.55-0.344-107.366 0-204.498 44.622-273.866 116.276z m523.486-22.99c-44.978 101.342-105.44 194.28-178.382 275.818a1061.24 1061.24 0 0 1 63.112 76.672c68.342-54.684 153.042-89.77 245.602-96.726-8.58-101.838-57.33-192.416-130.332-255.764z"  horiz-adv-x="1024" />

    
    <glyph glyph-name="ios-bluetooth" unicode="&#59747;" d="M757 230l-176.6 154 176.4 152.2c13.8 12 14.8 32.6 2.2 45.8L525.4 824.8c-4.4 4.6-10.8 7.2-17.2 7.2-12.2 0-22.2-9.8-22.2-21.6V472l-172.6 146.6c-14.2 12-35.6 10.6-48.2-3-13-14-11.6-35.8 3.2-48.2L486 384l-216.2-181.8c-14.6-12.2-16.2-33.6-3.4-47.8l0.6-0.6c12.6-14 34.6-15.4 49-3l170 147.2v-339.6c0-12.4 10.2-22.4 23-22.4 6.4 0 12.4 2.6 16.8 7L759.2 184c12.6 13.2 11.6 33.8-2.2 46z m-198.2 464.2l125.4-131.8c1.6-1.6 1.4-4.2-0.4-5.8l-125.4-106c-2.6-2.2-6.8-0.4-6.8 3V691.4c0.2 3.8 4.8 5.4 7.2 2.8z m-7-618V312.8c0 3.4 4.2 5.2 6.8 3l125.4-106c1.8-1.4 1.8-4 0.4-5.8l-125.4-130.6c-2.6-2.6-7.2-0.8-7.2 2.8z"  horiz-adv-x="1024" />

    
    <glyph glyph-name="ios-bed" unicode="&#59748;" d="M916.4 480h-0.8c-24 0-43.6-19.6-43.6-43.6 0-2.4-2-4.4-4.4-4.4H156.4c-2.4 0-4.4 2-4.4 4.4 0 24-19.6 43.6-43.6 43.6h-0.8c-24 0-43.6-19.6-43.6-43.6v-360.8c0-24 19.6-43.6 43.6-43.6h0.8c24 0 43.6 19.6 43.6 43.6V88c0 4.4 3.6 8 8 8h704c4.4 0 8-3.6 8-8v-12.4c0-24 19.6-43.6 43.6-43.6h0.8c24 0 43.6 19.6 43.6 43.6V436.4c0 24-19.6 43.6-43.6 43.6zM168 468h45c4.4 0 8 3.6 8 8v26c0 17.6 14.4 32 32 32H448c17.6 0 32-14.4 32-32v-26c0-4.4 3.6-8 8-8h48c4.4 0 8 3.6 8 8v26c0 17.6 14.4 32 32 32h195c17.6 0 32-14.4 32-32v-26c0-4.4 3.6-8 8-8H856c8.8 0 16 7.2 16 16v188c0 35.2-28.8 64-64 64H216c-35.2 0-64-28.8-64-64v-188c0-8.8 7.2-16 16-16z"  horiz-adv-x="1024" />

    
    <glyph glyph-name="ios-beaker-outline" unicode="&#59749;" d="M890.4 800H256.8C148.2 800 128 744.2 128 719.6c60.6-8.4 64-8.4 64-72.4v-551c0-70.6 57.6-128 128.4-128H736c70.8 0 126 58.4 126 129V717.6c4 35 25 63.2 27.2 66.6 2.4 3.8 6.8 8.8 6.8 11 0 2.4-0.6 4.8-5.6 4.8zM830 717.4v-620.4c0-26-9.4-48.8-27.4-67.4-18-18.6-41-29.6-66.4-29.6h-416c-52.8 0-96.2 43.8-96.2 97v550c0 33.4 0.6 61.6-16.6 80.8-8.6 9.6-21.2 12.6-34.6 16.4 11.4 10 35.4 24 84.2 24h587.2c0-0.2-14.2-12.8-14.2-50.8zM766 544v-416c0-20.4-3.6-36-11-43.8-11.4-11.6-27.6-20.4-40.2-20.4h-374c-17.6 0-30.8 5.4-39 15.8-8.8 10.8-13.8 28.6-13.8 50.2V544h478m32 32H256v-446c0-56.6 27.4-98 84.8-98h374c22.8 0 46.8 13.4 63 30 16.2 16.8 20.2 42.6 20.2 66V576z"  horiz-adv-x="1024" />

    
    <glyph glyph-name="ios-boat" unicode="&#59750;" d="M703.6 52c-52.4-18.4-133-29.8-192.2-29.8-59.2 0-139.8 11.4-192.2 29.8 0 0-52.2-47.8-124.6-72.4-4.6-1.6-3-8.4 1.8-7.8 45.2 5.2 80.4 13 122.8 24 46-18 133.4-27.8 192.2-27.8 58.8 0 148.2 7.6 192.2 27.8 43-11.2 77.6-19.2 124-24.2 4.8-0.6 6.4 6.2 1.8 7.8-71.4 24.8-125.8 72.6-125.8 72.6zM891 370l-372.4 171c-4.2 2-9.2 2-13.4 0L133 370c-12.4-5.8-21-18.2-21-32.8 0-4.8 1-9.2 2.6-13.4L224 52c55 0 113.4 44 113.4 44 36-18 106.2-34.2 158.6-37.2 5.6-0.4 11-0.4 16-0.4s10.4 0.2 16 0.4c52.4 3 122.6 19 158.6 37.2 0 0 58.4-44 113.4-44l109.4 271.8c1.6 4.2 2.6 8.6 2.6 13.4 0 14.6-8.6 27-21 32.8zM424 320c-13.2 0-24 19.6-24 44s10.8 44 24 44 24-19.6 24-44-10.8-44-24-44z m176 0c-13.2 0-24 19.6-24 44s10.8 44 24 44 24-19.6 24-44-10.8-44-24-44zM783.8 642v0.2C772.6 695.4 748.8 736 704 736h-69.2l-4 16c-7.2 28.2-32.8 48-62 48h-114c-29.2 0-54.8-19.8-62-48.2l-4-15.8H320c-45.8 0-70.2-41.4-79.6-94L204 448.4c-1.2-6.4 5.2-11.4 11.2-8.8l50.6 23.2c2.4 1 4 3.2 4.6 5.8l32.4 171.2c5 21.4 14.6 32 32.2 32h354.2c17.8 0 26.2-10 32.2-32l32.4-171.2c0.4-2.6 2.2-4.8 4.6-5.8l50.8-23.4c6-2.8 12.4 2.4 11.2 8.8L783.8 642z"  horiz-adv-x="1024" />

    
    <glyph glyph-name="ios-bicycle" unicode="&#59751;" d="M250.6 317.4c34.6 0 67.4-13.6 92.2-38.4 24.8-24.8 38.4-57.6 38.4-92.2s-13.6-67.4-38.4-92.2c-24.8-24.8-57.6-38.4-92.2-38.4s-67.4 13.6-92.2 38.4C133.6 119.2 120 152 120 186.6s13.6 67.4 38.4 92.2c24.8 24.8 57.6 38.6 92.2 38.6m0 56c-102.6 0-186.6-84-186.6-186.6C64 84 148 0 250.6 0s186.6 84 186.6 186.6c0.2 102.8-83.8 186.8-186.6 186.8zM639.6 640.4c35.6 0 64 28.4 64 64S675.6 768 640 768s-64.4-28-64.4-63.6c0-35.4 28.6-64 64-64zM773.4 317.4c34.6 0 67.4-13.6 92.2-38.4 24.8-24.8 38.4-57.6 38.4-92.2s-13.6-67.4-38.4-92.2C840.8 69.6 808 56 773.4 56s-67.4 13.6-92.2 38.4c-24.8 24.8-38.4 57.6-38.4 92.2s13.6 67.4 38.4 92.2c24.6 24.8 57.4 38.6 92.2 38.6m0 56c-102.6 0-186.6-84-186.6-186.6s84-186.6 186.6-186.6 186.6 84 186.6 186.6-84 186.6-186.6 186.6zM736 512h-96l-59 120.2c-11.2 18.6-31.8 31.8-54.2 31.8-16.8 0-33.6-7.4-44.8-18.6l-143.4-138.2c-11.2-11.2-18.6-28-18.6-44.8 0-34.8 25.2-47.2 37-54.2C448 355.8 480 350 480 323.8V192c0-17.6 14.4-32 32-32s32 14.4 32 32v180c0 26.4-60.8 48-96.6 76l97.8 103c37.4-57 54.6-103 76-103H736c17.6 0 32 14.4 32 32s-14.4 32-32 32z"  horiz-adv-x="1024" />

    
    <glyph glyph-name="ios-beer-outline" unicode="&#59752;" d="M767.4 659.4c0 41.6-34.4 76.6-76.2 76.6l-21 1.4c-12 54-64 94.6-118.2 94.6s-82.2-23.2-103.4-57.8c-17 19.6-42.2 30.8-70.4 30.8-36.6 0-68.2-23-83.4-53H246c-50 0-86-39.2-86-90.8v-8c0-57.6 32-41.8 32-79.6V360c0-26.8-22.4-38.6-22.4-70.4 0-17.6 16-33.6 33.6-33.6H224V608h544s-0.6 9.8-0.6 51.4z m-32.2-19.4H222.4h-21.6c-6 0-8.8 7.6-8.8 13.2v8c0 17.8 6.8 32.8 16.4 43.8 9.2 10.6 22.8 15 37.6 15h69l8.6 19.2c10 21 30.8 34.4 54.6 34.4 18 0 37-10.2 52.4-22.2l21.4-18.6 16 20c22.6 30 52.8 47.6 84.2 47.6 20.6 0 40-6.8 56-19.8 15.6-12.6 26.6-30.2 30.8-49.6l5.2-23.6s18.8 0.8 47-3.2 44.2-20.8 44.2-44.8l-0.2-19.4zM576 448m-40 0a40 40 0 1 1 80 0 40 40 0 1 1-80 0ZM512 352m-32 0a32 32 0 1 1 64 0 32 32 0 1 1-64 0ZM552 192m-24 0a24 24 0 1 1 48 0 24 24 0 1 1-48 0ZM192-32h608v-32H192zM832 480h-96v96H256v-544l-32-32h544l-32 32v128h96c17.6 0 32 14.4 32 32V448c0 17.6-14.4 32-32 32z m-128-448H288V544h416v-512z m128 160h-96V448h96v-256z"  horiz-adv-x="1024" />

    
    <glyph glyph-name="ios-body" unicode="&#59753;" d="M416 736a96 96 0 1 1 192 0 96 96 0 1 1-192 0ZM848 608H176c-26.6 0-48-21.4-48-48s21.4-48 48-48h197c11.2-2 26.4-7.6 34.4-28.4 9.4-24.2 4.8-67.2-1-103.4l-7.6-42.8c0-0.2 0-0.4-0.2-0.6l-60.8-344.4c-4.6-26 12.8-51 39-55.6 26.2-4.6 50.6 12.8 55.2 39l42 239.8v-0.4s12.4 65 37 65h2.2c25 0 37-65 37-65v0.2l42-239.8c4.6-26 29.4-43.4 55.4-38.8 26.2 4.6 43.4 29.6 38.8 55.6l-60.8 344.4c0 0.2 0 0.4-0.2 0.6l-7.6 42.8c-5.8 36.2-10.4 79.2-1 103.4 8 20.8 23.2 26.4 34.4 28.4H848c26.6 0 48 21.4 48 48s-21.4 48-48 48z"  horiz-adv-x="1024" />

    
    <glyph glyph-name="ios-beer" unicode="&#59754;" d="M224 572c0 26.6 21.4 48 48 48h459c9.8 0 19.2-3 27-8.8 4-3 9.8 0 9.6 5-0.2 11.4-0.4 18.6-0.4 43.2 0 41.6-34.4 76.6-76.2 76.6h-0.4c-11.4 0.8-21.6 8-25.8 18.6-18 45.2-64.6 77.2-112.8 77.2-42 0-68.4-14-88-36.6-8.8-10-23.6-11.8-34.8-4.8-14.6 9.2-32.2 14.2-51 14.2-28.8 0-54.4-14.2-71.6-34.8-8-9.8-20.8-14-33.2-11.8-10.4 2-25.2 3.6-45.4 3.6-50 0-100-33.2-100-84.8v-8c0-57.6 32-45.8 32-83.6v-101.6c0-26.8-22.4-38.6-22.4-70.4 0-17.6 16-33.6 33.6-33.6H224V572zM772-8H220c-15.4 0-28-12.6-28-28s12.6-28 28-28h552c15.4 0 28 12.6 28 28s-12.6 28-28 28zM800 508h-64v48c0 17.6-14.4 32-32 32H288c-17.6 0-32-14.4-32-32v-427.6c0-24.2-2.2-36.4-6.4-60.2l-0.2-1c-1.6-9.4 0.4-19 5.6-27 6.8-10.2 18.2-16.4 30.6-16.4h427.8c8.2 0 16.2 2.8 22.2 8.2 9.4 8.2 13 20.6 10.4 32-5.4 23.6-9 35.6-9.6 59.8H800c52.8 0 96 43.2 96 96v192c0 53-43.2 96.2-96 96.2z m40-288c0-22-18-40-40-40h-64V452h64c22 0 40-18 40-40v-192z"  horiz-adv-x="1024" />

    
    <glyph glyph-name="ios-boat-outline" unicode="&#59755;" d="M512 0.4c-59.2 0-139.8 13.4-192 31.6 0 0-70-45-160-64 64.6 0 106.6 18 160 32 46-18 133.4-31.6 192-31.6 58.6 0 148 11.6 192 31.6 53.4-14 94-32 160-32-87.6 19-160 64-160 64-52.2-18.2-132.8-31.6-192-31.6zM891 370l-61.4 28.2-46 243.8v0.2C772.6 695.4 748.8 736 704 736h-69.2l-16.4 64H405l-16.2-64H320c-45.8 0-70.2-41.4-79.6-94l-46-243.8L133 370c-12.4-5.8-21-18.2-21-32.8 0-4.8 1-9.2 2.6-13.4L224 32c55 0 113.4 38 113.4 38 39.8-20 121.6-37.6 174.6-37.6s134.8 17.6 174.6 37.6c0 0 58.4-38 113.4-38l109.4 291.8c1.6 4.2 2.6 8.6 2.6 13.4 0 14.6-8.6 27-21 32.8zM429.8 768h163.6l8.2-32h-180l8.2 32z m-158-131.8C279.4 678.2 294 704 320 704h384c25.6 0 39.4-25.6 48.2-68.2L794 414.6 721.2 448h0.4c17.8 0 33.6 9.2 30.2 32l-30.2 160c-6 22-14.4 32-32.2 32H334.8c-17.8 0-27.2-10.6-32.2-32l-30.2-160c-2.6-16 12.4-32 30.2-32h0.4L230 414.6l41.8 221.6zM512 544l-139.4-64h-67.6l29 153.2c0.8 3.2 1.6 5.4 2.2 6.8h351.6c0.6-1.4 1.6-3.8 2.6-7.4l28.8-152.6h-67.6L512 544z m-176.6-437.2l-15.4-10c-11.4-7.4-42.4-24-73.4-30.4L144 337.2c0 2.2 1.6 3.2 2.2 3.6L496 504.6v-439.6c-48 3-112.4 17.6-144.2 33.6l-16.4 8.2z m442-40.4c-31 6.4-62 23-73.4 30.4l-15.4 10-16.4-8.2c-31.8-16-96.4-30.8-144.2-33.6V504.6l349.8-163.8c0.6-0.4 2.2-1.4 2.2-3.6l-102.6-270.8zM576 364a44 24 90 1 1 48 0 44 24 90 1 1-48 0ZM400 364a44 24 90 1 1 48 0 44 24 90 1 1-48 0Z"  horiz-adv-x="1024" />

    
    <glyph glyph-name="ios-bookmark-outline" unicode="&#59756;" d="M256 800v-832l256 192.8L768-32V800H256z m480-768l-224 168.6L288 32V768h448v-736z"  horiz-adv-x="1024" />

    
    <glyph glyph-name="ios-book" unicode="&#59757;" d="M292 767.8c108.2 0 200-55.8 200-164V4c0-4.4-6.2-5.4-7.6-1.4v0.2c-20.6 68.4-76.4 135.2-164.6 141-68.4 4.4-133.8-25.8-186.2-74.2-3.2-3-8.6-5.8-13.2-5.8h-9c-7.4 0-15.2 5.4-15.2 12.2V655.6C96 719.8 183.8 767.8 292 767.8zM732 768c-108.2 0-200-55.8-200-164v-599.8c0-4.4 6.2-5.4 7.6-1.4v0.2c20.6 68.4 78.8 135.8 164.6 141 65.8 4 127.8-22 186.2-74.2 3.2-2.8 8.6-5.8 13.2-5.8h9c7.4 0 15.2 5.4 15.2 12.2V656c0.2 64-87.6 112-195.8 112z"  horiz-adv-x="1024" />

    
    <glyph glyph-name="ios-bookmark" unicode="&#59758;" d="M256 736v-760c0-6.6 7.6-10.4 12.8-6.4l233.6 184c5.8 4.2 13.6 4.2 19.2 0l233.6-184c5.2-4 12.8-0.2 12.8 6.4V736c0 35.4-28.6 64-64 64H320c-35.4 0-64-28.6-64-64z"  horiz-adv-x="1024" />

    
    <glyph glyph-name="ios-bonfire-outline" unicode="&#59759;" d="M510 191.8l0.2-1.6 0.4-1.8 30-150 0.2-1 0.2-1c0.8-2.8 1.2-5.6 1.2-8.4 0-19.2-16.6-28-32-28-9.4 0-17.8 3-23.6 8.4-5.6 5-8.4 11.6-8.4 19.6 0 2.4 0.2 4.6 0.8 7v0.8l31 156m0 32.2c-15.2 0-28-10.8-31.2-25L447.6 42c-1-4.6-1.6-9.2-1.6-14 0-35.4 28.6-60 64-60s64 24.6 64 60c0 5.8-0.8 11.4-2.2 16.8l-30 150c-1.4 16.4-15 29.2-31.8 29.2zM666 165.8l82.6-60.2 1.4-1 1.4-0.8c0.6-0.4 2.2-1.8 3.4-2.8 0.8-0.8 1.8-1.4 2.6-2.2 0.8-0.6 2.2-3.4 2.6-7.6 0.2-5.6-1.6-11.2-4.8-14.4-2.8-2.8-7.6-4.6-12.8-4.6-5.2 0-8.6 1.8-9.6 2.8-0.4 0.6-1 1.2-1.4 1.8-1 1-2.2 2.4-2.4 3l-0.6 0.8-0.6 0.8-61.8 84.4m-34.2 58c-6 0-11.8-2.4-16.6-7.2-8.2-8.2-9.4-20.8-3.4-30.8l90-123.6c1.8-3 4.4-5.6 6.8-8.4 8-9.2 20.6-14 33.8-14 12.8 0 26 4.6 35.4 14 19.2 19.2 18.8 54 0 69.4-3.4 2.8-6.6 5.8-10.2 7.8L648.4 218c-5.6 4-11.2 5.8-16.6 5.8zM357.8 165.6l-61.2-84-0.6-0.8-0.6-0.8c-0.6-1-1.4-2-2.4-3-3.2-3.2-7.4-5-12-5s-8.8 1.8-12 5c-6.6 6.6-6.6 17.4 0 24 1 1 2.2 2 3.6 2.8l1.4 0.8 1.4 1 82.4 60m33.4 58.4c-5.6 0-11-1.8-15.4-5.6l-119.2-86.8c-3.6-2.2-7.2-4.8-10.2-7.8-19.2-19.2-19.2-50.2 0-69.4 9.6-9.6 22-14.4 34.6-14.4 12.6 0 25 4.8 34.6 14.4 2.6 2.6 4.8 5.4 6.8 8.4l90 123.2c6 10 5 22.4-3.4 30.6-5 5-11.4 7.4-17.8 7.4zM558.6 760c18.6-6.8 41-18 61.6-33.2 29.8-21.8 65.2-58.4 65.2-108 0-28.2-4.8-49.4-15.8-68.6-13-23.2-36-45.2-70.4-67.6-14.6-9.6-31.2-18.8-48.8-28.8-59.6-33.6-132-74.2-169.4-151-5.8 4.4-11.8 10-17.8 16.4-27 29.8-37.2 68-30.4 113.4 7.6 49.6 52.4 91.4 99.8 135.6 56.4 51.8 118.8 109.8 126 191.8m-33.2 40c24-161.6-203.4-226-224-362.6-20.6-136.6 96-181.4 96-181.4 32.6 113.2 144.8 151.2 219.4 199.6 81.4 52.8 100.6 102.6 100.6 163 0 115.2-144.6 181.4-192 181.4zM711.4 503.8c-6.6-12.6-14.6-24.4-25-35.8 0 0 2.8-22.2 4-40.8s-1.4-34.2-3.4-40c-13-38-30.2-64.2-52.8-79.6-19.6-13.4-44-19.6-77-19.6-12.8 0-32.8 7.8-48.4 21.8s-22.2 22.4-22.2 22.4c-8.2-7-15-13-22.2-21 22.6-32.8 62.6-55.4 92.6-55.4 72 0 128 27 160 120.8 10.6 29.8 4.4 98.8-5.6 127.2zM374.2 740.2c-3 0-5.8-0.2-8.6-0.6 4.6-57.2-60-88-64-129.6-2.4-25.2 11-50 22-57.6 7.6 9.6 21.4 23.8 21.4 23.8-9 7.4-13.4 25.4-11 33.6s12 19.8 21.2 31c13.4 16.4 30.4 37 38.2 63.2 2.6-1.2 5.2-2.4 7.6-4 5.8-3.4 13.6-7.8 19.4-14.8s11.6-13.8 16.8-23c0 0 12.6 15.8 17.6 25.2-19.2 36.2-53.8 52.8-80.6 52.8zM275.4 225.6l-121-25.2c-11.6-2.4-23.2 4.6-25.8 15.8-2.6 11.2 4.8 22.2 16.6 24.6 0.6 0.2 1.4 0.2 2 0.4l123 14.6c8.8 1 16.8-5 18-13.4 0.8-7.8-4.8-15-12.8-16.8zM748.6 225.6l121-25.2c11.6-2.4 23.2 4.6 25.8 15.8 2.6 11.2-4.8 22.2-16.6 24.6-0.6 0.2-1.4 0.2-2 0.4l-123 14.6c-8.8 1-16.8-5-18-13.4-0.8-7.8 4.8-15 12.8-16.8z"  horiz-adv-x="1024" />

    
    <glyph glyph-name="ios-bookmarks" unicode="&#59760;" d="M832 832v-255.8l-45.8 29-18.2 12.8-18.2-12.8-45.8-29V832h-82.8c-45-0.4-81.2-37.6-81.2-82.8v-626.4c0-15-11.6-28-26.6-28.8-16-0.8-29.4 12-29.4 28V749.2c0 45.2-36.2 82.4-81.2 82.8H190.2C129.6 832 80 782.4 80 721.8v-579.6c0-60.6 49.6-110.2 110.2-110.2l216 0.2c8.4-0.2 16.6-1.2 24.4-2.8 30.6-6.2 53.6-33.2 53.2-64.4-0.2-14.4 10.4-27.2 24.8-28.8 17-1.8 31.4 11.4 31.2 28.2-0.4 31.6 22.8 58.8 53.8 65 7.6 1.6 15.8 2.4 24 2.6l216-0.2c60.6 0 110.2 49.6 110.2 110.2V721.8C944 782.4 892.6 832 832 832z"  horiz-adv-x="1024" />

    
    <glyph glyph-name="ios-bonfire" unicode="&#59761;" d="M541.8 194.8c-1.4 16.4-15.2 29.2-31.8 29.2-15.2 0-28-10.8-31.2-25L447.6 42c-1-4.6-1.6-9.2-1.6-14 0-35.4 28.6-60 64-60s64 24.6 64 60c0 5.8-0.8 11.4-2.2 16.8l-30 150zM611.8 186zM777.8 123.4c-3.4 2.8-6.6 5.8-10.2 7.8l-119.2 87c-11.6 7.6-24 7.4-33-1.8-8.2-8.2-9.4-20.8-3.4-30.8l90-123.6c1.8-3 4.4-5.6 6.8-8.4 15.6-18.2 50.2-19.2 69.2 0 18.8 19.6 18.6 54.4-0.2 69.8zM745 226zM870.8 256h-119c-7.8 0-14.8-4.4-16.2-12.4-1.2-7.2 2.6-14.2 9.4-17.6h0.2l115.4-35.6c16.6-3.8 35.4 11 35.4 29.6 0 23.6-9.6 36-25.2 36zM278.4 226zM278.4 226c6.6 3.2 10.6 10.4 9.4 17.6-1.4 8-7.8 12.4-16.2 12.4H152.6c-15.2 0-24.6-16.6-24.6-35.2s18.2-34.2 34.8-30.4l115.4 35.6h0.2zM375.8 218.4l-119.2-86.8c-3.6-2.2-7.2-4.8-10.2-7.8-19.2-19.2-19.2-50.2 0-69.2 19.2-19.2 50.2-19.2 69.2 0 2.6 2.6 4.8 5.4 6.8 8.4l90 123.2c6 10 5 22.4-3.4 30.6-9.2 9-23.6 9.6-33.2 1.6zM717.4 618.6c0 115.2-144.8 181.4-192 181.4 24-161.6-203.4-226-224-362.6-20.6-136.6 96-181.4 96-181.4 32.6 113.2 144.8 151.2 219.4 199.6 81.4 52.8 100.6 102.6 100.6 163zM717.4 376.8c10 29.4 3.8 98.6-6 126.8-18-35-52.6-64.8-94.4-92-17.2-11.2-41.8-21.6-59.6-31.8-37.4-21-68-41.2-92.6-68.8 22.6-32.8 62.6-55.4 92.6-55.4 72 0.4 128 27.4 160 121.2zM323.6 552.2c23.4 30.2 49.8 47.6 76.4 72.4 26.8 25 44.2 42.4 55 62.6-21.4 40.2-61.6 56.2-89.4 52.2 4.6-57.2-60-88-64-129.6-2.6-25.2 10.8-50 22-57.6z"  horiz-adv-x="1024" />

    
    <glyph glyph-name="ios-body-outline" unicode="&#59762;" d="M512 800.082c35.29 0 64-28.702 64-63.982s-28.71-63.98-64-63.98-64 28.702-64 63.98c0 35.28 28.71 63.982 64 63.982m0 31.99c-53.02 0-96-42.966-96-95.972 0-53.004 42.98-95.97 96-95.97s96 42.966 96 95.97c0 53.006-42.98 95.972-96 95.972zM848 608H176c-26.51 0-48-21.494-48-48s21.49-48 48-48h200.902c11.098 0 26.394-8.59 34.432-29.416 9.302-24.11 4.74-66.66-1.078-102.888l-7.846-42.52c-0.038-0.208-0.41-0.2-0.41-0.406l-64.458-344.476c-4.606-26.102 12.974-50.988 39.08-55.594a49.04 49.04 0 0 1 8.436-0.734c22.714 0 41.834 16.38 45.94 39.672L472 215.516v-0.332S486.5 278 510.904 278h2.192C538 278 548 215.184 548 215.184v0.164l42.966-239.79c4.104-23.284 24.662-39.63 47.526-39.63a50.26 50.26 0 0 1 8.536 0.736c26.106 4.606 43.642 29.52 39.038 55.622l-64.698 344.502c-0.004 0.016 0.022 0.04 0.018 0.054-0.038 0.208-0.064 0.434-0.104 0.644l-7.542 42.822c-5.818 36.238-10.376 78.166-1.076 102.274C620.702 503.41 637 512 647.098 512H848c26.51 0 48 21.494 48 48s-21.49 48-48 48zM176 543.774c-8.822 0-16 7.292-16 16.114 0 8.822 7.178 16.114 16 16.114h672c8.822 0 16-7.18 16-16s-7.178-16-16-16H645c-31.076 0-54.876-29.476-61.964-47.844-9.692-25.114-10.008-63.884-0.776-121.376l-0.018-0.208 0.012-0.22 6.734-38.276 1.124-6.482 64.504-343.256c1-5.668-1.24-9.922-2.664-11.954-1.426-2.034-4.67-5.598-10.358-6.602a16.648 16.648 0 0 0-2.854-0.252c-7.786 0-14.414 5.278-15.766 12.944L580.51 220h-0.03c-0.542 4-3.656 20.1-10.044 37.542-4.556 12.434-9.688 22.068-15.688 30.01-14.182 18.776-30.478 22.448-41.652 22.448h-2.192c-10.94 0-27.006-3.462-41.42-21.876-6.1-7.792-11.458-17.342-16.38-29.604-7.256-18.074-11.01-35.308-11.416-37.226l-0.22-0.738-41.456-239.8c-1.386-7.772-7.5-13.192-14.882-13.192-0.918 0-1.864 0.086-2.806 0.254-5.68 1-8.91 4.55-10.33 6.576a15.922 15.922 0 0 0-2.646 11.95l64.514 343.124 0.008 0.038 0.348 1.854 7.55 42.66 0.044 0.25 0.042 0.252c9.258 57.658 9.054 96.6-0.664 121.782-7.086 18.362-27.152 47.474-63.52 47.474"  horiz-adv-x="1024" />

    
    <glyph glyph-name="ios-book-outline" unicode="&#59763;" d="M695.242 768c-81.882 0-158.242-28-183.156-88.99C485 740 410.816 768 328.932 768 218.53 768 128 716.04 128 610v-566h44.28c25.72 52.668 88.476 84 156.65 84 80.448 0 147.754-55.056 163.234-128h39.428c15.478 72.944 82.99 128 163.444 128 68.17 0 122.298-23.332 156.858-84H896V610c0 106.04-90.354 158-200.758 158zM496 74.148C460 125.89 398.54 160 329 160c-69.538 0-129-20.11-167-71.852l-2-1.074V614c6 83.65 80.178 122 168.586 122 90.324 0 164.29-37.416 166.726-123.616-0.034-1.458 0.032-2.918 0.032-4.384l0.656-26.206v-507.646zM864 600v-511.852C828 139.89 764.538 160 695 160c-69.54 0-131-34.11-167-85.852V608c0 88.224 75.318 128 167.174 128C783.58 736 858 713.65 864 630v-30z"  horiz-adv-x="1024" />

    
    <glyph glyph-name="ios-briefcase" unicode="&#59764;" d="M160 0h704c35.4 0 64 28.6 64 64V448H96v-384c0-35.4 28.6-64 64-64zM864 640h-16v16c0 8.8-7.2 16-16 16h-64c-8.8 0-16-7.2-16-16v-16h-56V704c0 35.2-28.8 64-64 64H392c-35.2 0-64-28.8-64-64v-64h-56v16c0 8.8-7.2 16-16 16H192c-8.8 0-16-7.2-16-16v-16h-16c-35.4 0-64-28.6-64-64v-80h832v80c0 35.4-28.6 64-64 64z m-224 0H384v56c0 8.8 7.2 16 16 16h224c8.8 0 16-7.2 16-16v-56z"  horiz-adv-x="1024" />

    
    <glyph glyph-name="ios-browsers-outline" unicode="&#59765;" d="M128 608v-608h607.8V608H128z m575.8-576H160V576h543.8v-544zM896 768H288v-128h32V736h544v-544h-96v-32h128z"  horiz-adv-x="1024" />

    
    <glyph glyph-name="ios-briefcase-outline" unicode="&#59766;" d="M832 640v32h-64v-32h-96V704c-1 36.4-27.2 64-64.4 64h-198.2C372.2 768 352 740.6 352 704v-64h-96v32H192v-32H96v-640h832V640h-96z m-448 1V699.8c0 20.4 5.8 36.2 27.4 36.2h194.2c20.8 0 34.4-15.4 34.4-36.2V640H384v1zM896 32H128V480h768v-448z m0 480H128v96h64v-32h64v32h512v-32h64v32h64v-96z"  horiz-adv-x="1024" />

    
    <glyph glyph-name="ios-browsers" unicode="&#59767;" d="M96 533.2V48c0-44.2 35.8-80 80-80h485.2c44.2 0 80 35.8 80 80V533.2c0 44.2-35.8 80-80 80H176c-44.2 0-80-35.8-80-80zM282.8 720v-56.8c0-4.4 3.6-8 8-8h396.4c52.8 0 96-43.2 96-96v-396.4c0-4.4 3.6-8 8-8H848c44.2 0 80 35.8 80 80V720c0 44.2-35.8 80-80 80H362.8c-44.2 0-80-35.8-80-80z"  horiz-adv-x="1024" />

    
    <glyph glyph-name="ios-bowtie" unicode="&#59768;" d="M581.6 469C572 486 554 491.6 532 491.6v0.4c-12 0-28.6-2.6-45.2-5.8-23.8-4.6-39.4-14.2-39.4-14.2s7.2-54.6 0.2-117-15.8-85-15.8-85 10.6-24.2 80-30c7.8-0.6 15.2-1 22-1 49 0 72.8 14.6 72.8 14.6s6.6 10.8 8.6 44.2c3.8 64.4-14 137-33.6 171.2zM411.4 478.4c-44 80.4-172.4 193.6-242.6 193.6C115.8 672 64 535 64 384s46-288 103-288c66.8 0 221 160 221 160s11.4 25.2 19.8 67.2l3.6 20.8c1.4 9.4 2.6 19.4 3.4 30 0.6 7 1 13.6 1.2 19.8l0.6 19.6c1.4 32-5.2 65-5.2 65zM855.2 672c-72.8 0-192.8-113-236.6-193.6l-1.6-2.8s2.8-5 3.8-6.8c6.8-12 13.4-28.6 18.8-48l5.8-23.4c4.4-20.4 7.4-42.4 8.4-64.4l0.4-18c0-5.8-0.2-11.4-0.6-17-2-33.4-9.2-44.2-9.2-44.2 15.2-21 138-157.8 212.4-157.8 57 0 103 137 103 288s-51.6 288-104.6 288z"  horiz-adv-x="1024" />

    
    <glyph glyph-name="ios-bookmarks-outline" unicode="&#59769;" d="M864 768H563.2c-20.6 0-38.6-9.2-51.2-23.4-12.4 14.4-30.6 23.4-51.2 23.4H160c-37.6 0-66-26.6-66-64v-572.2c0-37.6 28.4-67.8 66-67.8h286.6c27.6 0 49.4-8.4 49.4-38.8V0h32v25.2c0 30.6 21.8 38.8 49.4 38.8H864c37.6 0 66 30.2 66 67.8V704c0 37.4-28.4 64-66 64zM496 73.8c-9.4 15.6-27 22.2-47.6 22.2H160c-18.8 0-32 17-32 35.8V704c0 18.8 13.2 32 32 32h286.6c25.6 0 49.4-25.6 49.4-44.4v-617.8zM640 736h128v-200.8l-45.8 29-18.2 12.8-18.2-12.8-45.8-29V736z m256-604.2c0-18.8-13.2-35.8-32-35.8H575.6c-20.6 0-38.2-4.6-47.6-22.2V691.6c0 18.8 23.8 44.4 49.4 44.4H608v-262l96 64 96-64V736h64c18.8 0 32-13.4 32-32v-572.2z"  horiz-adv-x="1024" />

    
    <glyph glyph-name="ios-brush" unicode="&#59770;" d="M299.2 329.4c-103.8 0-167.8-91.4-167.8-190.2 0-42.6-21.8-74.2-62.8-92.8-4.4-2-6-7.6-3.4-11.6 33.4-49.2 126.6-66.6 190.6-66.6 16.8 0 31.8 1.2 43.6 3.4 71.2 12.8 160.2 49.8 181.4 154 24.4 121-77.8 203.8-181.6 203.8zM935.4 775.2C920 790.6 901.8 800 883.2 800c-12.6 0-25.4-4.4-37.6-14L515.4 495.4c-10.8-9.6-24.8-14.8-39.4-14.8h-0.2-0.2c-11.2 0-22.2-4.2-30.8-11.6l-107.2-87.6c-4.2-3.6-5.4-9.6-2.8-14.4 1.8-3.4 5.2-5.8 9-6.2 91.2-9 174-74 174.6-173.2 0-3.4 1.4-6.8 4-9 5-4.2 12-3.4 16 1.2l90.2 104.4c7 8 11.6 18.2 12 29v2.4c0 15 6 29.6 16 40.8l289.6 328.8c23.8 30.2 15.2 64.2-10.8 90z"  horiz-adv-x="1024" />

    
    <glyph glyph-name="ios-bug" unicode="&#59771;" d="M749.2 641.4C690.8 719 606.2 768 512 768c-94.2 0-178.8-49-237.2-126.6 12.8-31.2 31.6-60 56.2-84.6 48.4-48.4 112.6-75 181-75s132.6 26.6 181 75c24.6 24.6 43.6 53.2 56.2 84.6zM244 596s-7.6 3.2-11.8 6.6c-4.2 3.4-10 9.8-13 16.8 10.8 22.6 2.4 50-19.8 62.6-23.6 13.2-53.8 4.4-66.2-20-9-17.8-5.8-39.6 7.6-54.2 3.6-3.8 7.4-6.8 11.4-9.2 5.6-3.2 9.8-8 12.8-13.6 5.4-10.4 12.8-21.4 22.2-29.2 8.4-7 17.6-14.2 30.4-21.4-14.4-40.6-23.2-84.6-25-130.8-22-0.4-37.2-4.2-51-8.2-8.4-2.4-16.4-6.8-23.6-11.8-2 0.2-3.8 0.4-5.8 0.4-27.6 0-49.6-23.2-48-51.2 1.4-23.6 20.6-43 44.4-44.8 22-1.6 41.2 11.8 48.6 31 4 10.6 13.4 18.4 24.8 19.8 3.8 0.4 7.8 0.8 12.4 0.8 6.4-66 26.6-127 57.2-178.4-28.4-22-45.8-46-53.2-72.6 0 0-1.6-0.8-3.8-2.8-2-1.6-3.8-3.2-5.6-5.2-17.8-19.8-16.2-50 3.6-67.8 19.8-17.8 50-16.2 67.8 3.6 12.4 13.8 15.2 32.6 9.2 49-4.4 12-1.4 25.4 7.8 34 3.2 3 7 6.2 11.4 9.8 54.2-63.4 118.8-104 199.4-108.8V430.2C381.6 436 288.8 505.4 244 596zM912 383.8c-2 0-4-0.2-5.8-0.4-7.2 5-15.4 9.2-23.6 11.8-13.8 4-28.8 7.8-51 8.2-2 46.2-10.8 90.4-25 130.8 12.8 7.2 22 14.4 30.4 21.4 9.8 8.2 17.4 20 23 30.6 2.6 5 6.6 9 11.6 11.8 0 0 0.2 0 0.2 0.2 23.2 13 31.4 42.2 18.4 65.4-13 23.2-42.2 31.4-65.4 18.4-22.2-12.4-30.6-39.8-19.8-62.6-3.2-6.8-6.8-11.4-13-16.8-4.6-4-11.8-8.6-11.8-8.6-44.8-90.6-137.6-158-244-163.8V0c80.6 4.8 145.2 45.6 199.4 108.8 4.2-3.4 7.8-6.4 10.8-9.2 9.6-8.8 12.8-22.6 8.4-35-6-16.2-3-35 9.4-48.6 17.8-19.8 48-21.4 67.8-3.6 19.8 17.8 21.4 48 3.6 67.8-1.8 2-3.6 3.6-5.6 5.2-2.2 1.8-3.8 2.8-3.8 2.8-7.4 26.6-24.8 50.6-53.2 72.6 30.6 51.4 50.8 112.4 57.2 178.4 4.2 0 8.2-0.4 11.8-0.8 11.8-1.4 21.4-9.4 25.8-20.4 7.4-18.8 26.4-31.8 48.2-30.2 23.6 1.8 42.8 21 44.4 44.8 1.2 28-20.8 51.2-48.4 51.2z"  horiz-adv-x="1024" />

    
    <glyph glyph-name="ios-bowtie-outline" unicode="&#59772;" d="M534.4 492c-14 0-29.8-2.6-46.6-5.8-23.8-4.6-40-14.2-40-14.2s7-54.6 0-117-16-85-16-85 10.4-24.2 80-30c7.8-0.6 15.2-1 22-1 49 0 72.8 14.6 72.8 14.6s7.2 10.8 9.2 44.4c3.8 64.2-13.4 136.8-33 171-9.6 17.2-26.8 23-48.4 23z m49.4-192c-0.6-10.2-1.8-17.4-2.8-22.2-9-3-24.6-6.6-47.2-6.6-6.2 0-12.8 0.2-19.4 0.8-23.8 2-38 6.2-46.2 9.6 3.4 14.8 7.8 37.6 11.4 69.8 4.4 40.2 3.6 77 2.2 100 3.6 1.2 7.8 2.2 12.2 3 12.2 2.4 27.6 5 40.4 5 16.8 0 19.4-4.4 20.6-6.6 8.2-14.2 16.2-38.6 21.8-64.8 6.2-29.8 8.6-61.2 7-88zM168.8 672C115.8 672 64 535 64 384s46-288 103-288c66.8 0 233 160 233 160s11.4 25.2 19.8 67.2l3.6 20.8c1.4 9.4 2.6 19.4 3.4 30 0.6 7 1 13.6 1.2 19.8l0.6 19.6c1.6 32-5 65.2-5 65.2-44.2 80.4-184.6 193.4-254.8 193.4z m119.6-471C201.8 131.6 172.2 128 167 128c-6.4 0-25.2 16.2-42.6 66-18 51.4-28.4 120.6-28.4 190 0 66 10.6 133.8 29.2 185.8 19.8 55.4 39.6 69.6 43.6 70.2 6.6 0 22-2 49-15.6 21.2-10.6 44.8-25.8 68.6-44.4 46.2-35.8 86.6-78.6 106.4-112.6 1.4-8.2 3.8-26.2 3.8-44.4-16.2 7-41.8 15.8-77.4 22.8-56 11-84.8 6.2-86 6-1.8-0.4-3.2-2-3.4-3.8 0-2 1.4-3.6 3.2-4 0.4 0 37.6-7.6 113.8-33.8 17-5.8 28.6-10 38-13.4 4-1.4 7.4-2.6 10.8-3.8-0.2-5.6-0.6-11-1-16.6-0.8-9-1.8-18.4-3-27.4l-1-5.6c-11-4-26.2-9-43.4-13.6-34-9-76-20-76-20-2-0.6-3.2-2.4-3-4.6 0.4-2 2.2-3.4 4.2-3.4 3.2 0.2 70.8 5.4 112.6 13.6-4.6-19.6-9.6-34-12.4-41.2-11.8-11.2-45.6-42.4-84.2-73.2zM855.2 672c-72.8 0-204.8-113-248.6-193.6l-1.6-2.8s2.8-5 3.8-6.8c6.8-12 13.4-28.6 18.8-48l5.8-23.4c4.4-20.4 7.4-42.4 8.4-64.4l0.4-18c0-5.8-0.2-11.4-0.6-17-2-33.4-9.2-44.2-9.2-44.2 15.2-21 150-157.8 224.4-157.8 57 0 103 137 103 288s-51.6 288-104.6 288z m1.8-544c-22.8 0-65.4 23.8-114.2 63.8-32.4 26.6-59.6 53.6-74 69 2.2 9 3.8 20.6 4.8 35.4 0.2 3.2 0.4 6.6 0.4 10 42.2-11.4 120.4-19.2 124.2-19.6h0.4c1.8 0 3.6 1.4 4 3.2 0.4 2-0.8 4-2.8 4.6-0.4 0.2-43.4 13.2-81 23-17.6 4.6-33.2 9.8-44.8 14.2v2.2l0.2 0.4v0.4c-1.8 21.4-4 44-8.4 65.6 40.8 22.6 126 61 127 61.4 1.8 0.8 2.8 2.8 2.2 4.8-0.6 2-2.4 3.2-4.4 2.8-0.4 0-30.8-5.2-70.6-19.2-20.2-7-42.6-14.8-61-21.2l-0.2 0.6-0.2 0.6c-4.8 17.2-10.6 32.8-16.8 45.4 21.2 33.4 57.8 72.6 98.4 105.4 54.4 43.8 95 59.4 115 59.4 4-0.6 23.8-14.6 43.6-70.2 18.6-52.2 29.2-120 29.2-185.8 0-69.4-10.4-138.6-28.4-190-17.4-50-36.2-66.2-42.6-66.2z"  horiz-adv-x="1024" />

    
    <glyph glyph-name="ios-build-outline" unicode="&#59773;" d="M695.8 768c8 0 18-2 28-6l-77.6-78-11.8-11.8 3-16.4 18.4-102.4 4-21.8 21.8-4 102.4-18.6 16.6-3 11.8 11.8 78 78.4c6-14.2 6-26 5.8-30.8-1.4-24-11.4-61-50-99.6-29.8-29.8-78.6-49.8-121.6-49.8-19 0-35.8 3.8-50 11.2-7 3.6-18 8.4-31.8 8.4-11.2 0-28-3.4-44.6-19.4-18-17.6-362.6-384.8-377.4-400.4l-0.4-0.4-0.4-0.4c-11.4-13.2-26.8-15.2-35-15.2-14.8 0-29.4 6-40.2 16.4-10.8 11-17 26.8-16.4 42.4 0.4 9.2 3.2 22.4 15 32.4l0.6 0.4 0.6 0.4c15.6 14.8 384.6 362.2 399.8 377.2 15.8 15.8 19.2 32.4 19.4 43.6 0 13.8-4.8 25.2-7 30.8-36.4 85.4 20.4 155.2 38.8 174.4 34.6 36.8 79.4 48.4 98.4 49.4 0 0.8 0.8 0.8 1.8 0.8m0 32c-1.4 0-2.8 0-4-0.2-25-1.4-78.6-15.4-120-59.4-40.2-42.4-82.2-121.2-45-209 4.4-10.6 9.4-24.6-5.4-39.4C506.2 477.2 122 115.4 122 115.4c-36-31-33.4-88.4-0.2-121.8 17-16.8 40-25.6 62.6-25.6 22.2 0 43.8 8.4 59.2 26.2 0 0 358.8 382.2 376.4 399.6 8 7.8 15.4 10.2 22.2 10.2 6.6 0 12.6-2.4 17.2-4.8 19.8-10.2 42-14.8 64.8-14.8 53.6 0 110 24.8 144.4 59.2 48.8 48.8 57.8 96 59.2 120.2 1.4 24-6.8 55.8-33.4 82.2l-105-105.4-102.4 18.6-18.4 102.4 105 105.4C751.4 789.2 720 800 695.8 800zM205 37.4c-11-10.8-28.8-10.8-39.8 0-10.8 11-10.8 28.8 0 39.8 11 10.8 28.8 10.8 39.8 0 10.8-11.2 10.8-29 0-39.8z"  horiz-adv-x="1024" />

    
    <glyph glyph-name="ios-build" unicode="&#59774;" d="M882.2 633.8l-89.8-90.2c-1.8-1.8-4.6-2.6-7-2.2l-92.8 16.8c-3.2 0.6-5.8 3.2-6.4 6.4l-16.6 92.8c-0.4 2.6 0.4 5.2 2.2 7l89.6 90c7 7 6 18.6-2 24.2-20.2 14.4-44.2 21.4-63.6 21.4-1.4 0-2.8 0-4-0.2-25-1.4-78.6-15.4-120-59.4-40.2-42.4-82.2-121.2-45-209 4.4-10.6 9.4-24.6-5.4-39.4C506.2 477.2 122 115.4 122 115.4c-36-31-33.4-88.4-0.2-121.8 17-16.8 40-25.6 62.6-25.6 22.2 0 43.8 8.4 59.2 26.2 0 0 358.8 382.2 376.4 399.6 8 7.8 15.4 10.2 22.2 10.2 6.6 0 12.6-2.4 17.2-4.8 19.8-10.2 42-14.8 64.8-14.8 53.6 0 110 24.8 144.4 59.2 48.8 48.8 57.8 96 59.2 120.2 1.2 19.8-4.4 45.2-21.4 68.4-5.8 7.6-17.2 8.4-24.2 1.6zM205 37.4c-11-10.8-28.8-10.8-39.8 0-10.8 11-10.8 28.8 0 39.8 11 10.8 28.8 10.8 39.8 0 10.8-11.2 10.8-29 0-39.8z"  horiz-adv-x="1024" />

    
    <glyph glyph-name="ios-basket" unicode="&#59775;" d="M775.8 148.6h98.4l35 150.8h-133.4zM775.8 0h1c37.4 0 66.8 25 76.6 59l12 51.8h-89.6V0zM530.8 111h207.4V0H530.8zM150 148.6h98v150.8H115zM285.8 512h207.4v-175H285.8zM530.8 512h207.4v-175H530.8zM171 59.4c9.4-34 38.8-59.4 76.2-59.4h1v111H158.8l12.2-51.6zM285.8 111h207.4V0H285.8zM530.8 299.4h207.4v-150.8H530.8zM285.8 299.4h207.4v-150.8H285.8zM928 512h-95.8V704c0 35.2-28.8 64-64 64H255.8c-35.2 0-64-28.8-64-64v-192H96c-20.6 0-35.8-19.2-31.2-39.2l39.4-135.8H248V684c0 15.4 12.6 28 28 28h472c15.4 0 28-12.6 28-28v-347h144l39.2 135.8c4.6 20-10.6 39.2-31.2 39.2z"  horiz-adv-x="1024" />

    
    <glyph glyph-name="ios-bus" unicode="&#59776;" d="M219.2 62.6c-3.8 3.8-11.4 1-11.2-4.4 2-43 2.8-58 11-58h110.2c8.8 0 6.6 23 6.6 44-68.6-0.2-93.8-4.6-116.6 18.4zM804.8 62.6c3.8 3.8 11.4 1 11.2-4.4-2-43-2.8-58-11-58h-110.2c-8.8 0-6.6 23-6.6 44 68.6-0.2 93.8-4.6 116.6 18.4zM768 768H256c-35.2 0-64-28.8-64-64v-552c0-44 36-80 80-80h480c44 0 80 36 80 80V704c0 35.2-28.8 64-64 64zM324 144.2c-29.6-2.4-54 22.2-51.8 51.8 1.8 23.2 20.6 42.2 44 44 29.6 2.4 54-22.2 51.8-51.8-2-23.4-20.8-42.2-44-44z m152 155.8h-195.6c-17.8 0-32.4 14.6-32.4 32.4V563.6c0 17.8 14.6 32.4 32.4 32.4H476c4.4 0 8-3.6 8-8v-280c0-4.4-3.6-8-8-8z m231.8-155.8c-29.6-2.4-54 22.2-51.8 51.8 1.8 23.2 20.6 42.2 44 44 29.6 2.4 54-22.2 51.8-51.8-1.8-23.4-20.6-42.2-44-44zM776 332c0-17.6-14.4-32-32-32h-196c-4.4 0-8 3.6-8 8V588c0 4.4 3.6 8 8 8h196c17.6 0 32-14.4 32-32v-232z m-30 324H278c-17.6 0-30 12.6-30 28s12.4 28 30 28h468c17.6 0 30-12.6 30-28s-12.4-28-30-28z"  horiz-adv-x="1024" />

    
    <glyph glyph-name="ios-bulb" unicode="&#59777;" d="M808 518.2C808 674 667.8 800 512 800s-296-126.2-296-281.8c0-62 26.4-112.2 60.4-160.2h-0.6c21.8-30 42.8-35.4 63-70 29.4-50.4 36.2-81.4 37.4-111.4 0.8-17.2 15-30.6 32-30.6h17.8c4.4 0 8 3.6 8 8v189c0 10-2.4 19.6-6.8 28.6l-42 84c-7 14 3.2 30.4 18.8 30.4 8 0 15.4-4.6 18.8-11.8l50.6-102.8c4.4-8.8 6.6-18.4 6.6-28.2V154c0-4.4 3.6-8 8-8h48c4.4 0 8 3.6 8 8v189.2c0 9.8 2.2 19.4 6.6 28.2l50.8 103.2c3.4 6.8 10.4 11.2 18 11.2 15 0 24.8-15.8 18-29.2l-42.6-85.2c-4.4-9-6.8-18.8-6.8-28.6V154c0-4.4 3.6-8 8-8h20c17 0 31 13.2 32 30 1.8 30.8 9.4 64.6 36.8 112 20.2 34.6 41.2 40 63 70h-0.2c34 48 60.4 98.2 60.4 160.2zM476-32h72c15.4 0 28 12.6 28 28s-12.6 28-28 28h-72c-15.4 0-28-12.6-28-28s12.6-28 28-28zM436 56h152c15.4 0 28 12.6 28 28s-12.6 28-28 28h-152c-15.4 0-28-12.6-28-28s12.6-28 28-28z"  horiz-adv-x="1024" />

    
    <glyph glyph-name="ios-bug-outline" unicode="&#59778;" d="M912 384c-9.2 0-18-2.6-25.2-7.2-10.8 4.8-28.8 10.6-54.8 12.2-0.6 55.4-11 108-29.2 155.4 17 12.6 31.6 28.8 42.6 47.6h2.6c26.4 0 48 21.4 48 48s-21.4 48-48 48c-26.4 0-48-21.4-48-48 0-14 6-26.6 15.6-35.4-6-9.6-14.6-20.2-26-29.8C734.6 690.2 630.8 768 512 768c-118.8 0-222.6-77.8-277.8-193-11.4 9.6-19.8 20.2-25.8 29.8 9.6 8.8 15.6 21.4 15.6 35.4 0 26.6-21.4 48-48 48s-48-21.4-48-48 21.4-48 48-48h2.6c11.2-18.8 25.6-35 42.6-47.6-18.2-47.4-28.6-100-29.2-155.6-26.2-1.6-44-7.4-54.8-12.2-7.4 4.6-16 7.2-25.2 7.2-26.6 0-48-21.4-48-48s21.4-48 48-48 48 21.4 48 48c0 5-0.8 9.8-2.2 14.4 8 2.6 19.6 5.4 35 6.6 4.6-78 28.4-149.6 66-207.8-12-9-29.2-26-39.8-53.4C194.8 93.2 176 72.8 176 48c0-26.6 21.4-48 48-48s48 21.4 48 48c0 16.8-8.6 31.4-21.6 40 7.8 18 19 29 26.8 35 55-71.4 132.4-117.4 218.8-122.6 2.4-0.2 4.4-0.2 6.4-0.2h2c2.4 0 4.8-0.2 7.4-0.2 2.6 0 5 0 7.4 0.2h2c2 0 4.2 0.2 6.6 0.2 86.4 5.2 163.8 51.4 218.8 122.6 7.8-6 19-17 27-35.2-13-8.6-21.6-23.4-21.6-40 0-26.6 21.4-48 48-48 26.4 0 48 21.4 48 48 0 24.8-18.8 45.2-43 47.8-10.8 27.6-27.8 44.4-39.8 53.6 37.6 58.2 61.4 129.8 66 207.6 15.4-1 27-3.8 35-6.6-1.4-4.6-2.2-9.4-2.2-14.4 0-26.6 21.4-48 48-48s48 21.4 48 48-21.4 48.2-48 48.2z m-63.8 272c8.8 0 16-7.2 16-16s-7.2-16-16-16-16 7.2-16 16 7 16 16 16zM176 624c-8.8 0-16 7.2-16 16s7.2 16 16 16 16-7.2 16-16-7.2-16-16-16zM112 320c-8.8 0-16 7.2-16 16s7.2 16 16 16 16-7.2 16-16-7.2-16-16-16z m112-288c-8.8 0-16 7.2-16 16s7.2 16 16 16 16-7.2 16-16-7.2-16-16-16z m576.2 32c8.8 0 16-7.2 16-16s-7.2-16-16-16-16 7.2-16 16 7.2 16 16 16zM512 736c88.8 0 168.4-49.4 221.4-127-11-18.8-24.4-36.4-40.4-52.2-48.4-48.4-112.6-75-181-75s-132.6 26.6-181 75c-15.8 15.8-29.4 33.4-40.4 52.2C343.6 686.6 423.2 736 512 736zM224 384c0 71.8 17.8 138.8 48 194.4 49-73.4 130.8-123.2 224-128.2v-417.8c-151.4 10.4-272 164-272 351.6z m304-351.4V450.2c93 5.2 175 54.8 224 128.2 30.4-55.8 48-122.6 48-194.6 0-187.4-120.6-341-272-351.2zM912 320c-8.8 0-16 7.2-16 16s7.2 16 16 16 16-7.2 16-16-7.2-16-16-16z"  horiz-adv-x="1024" />

    
    <glyph glyph-name="ios-brush-outline" unicode="&#59779;" d="M299 329.4c-103.8 0-167.8-91.4-167.8-190.2 0-45.4-20.2-78.4-67.2-96.2 28.6-55.6 124-75 191.4-75 16.8 0 31.8 1.2 43.6 3.4 71.2 12.8 160.2 49.8 181.4 154 24.6 121.2-77.6 204-181.4 204z m150-197.8c-8-39.2-27.2-69-59-91.4-25.2-17.8-57.6-30.4-96.6-37.4-7.2-1.2-19.6-2.8-38-2.8-50.8 0-108.2 11.6-141 34.2 32 24.4 48.8 60 48.8 104.8 0 42 13.8 82.8 37.6 111.8 17.4 21.2 48.6 46.4 98.2 46.4 48.4 0 96.2-21.8 124.8-56.6 17.2-21.2 35.6-57.2 25.2-109zM935.2 775.2c-15.4 15.4-33.6 24.8-52.2 24.8-12.6 0-25.4-4.4-37.6-14L495.2 477.8c-6.8 1.8-13.2 2.8-19.4 2.8-9.6 0-18.6-2.4-26.4-7.6l-127.2-105.6c-3.2-3.2-3-8.6 0.2-11.8 1-1 2.2-1.6 3.4-2 1.2 0 2.6-0.2 3.8-0.2h0.2c95.8-6.8 184-75.6 180.6-181 0-1 0-2-0.2-3 0.2-1.6 1-3.4 2.2-4.6 1.6-1.6 3.8-2.4 5.8-2.4s4.2 0.8 5.8 2.4h0.2l0.4 0.4 108.6 124.4c8.4 12.8 9.4 28.4 4.8 45.8l308.4 350c23.4 30 14.8 64-11.2 89.8zM921.4 706L602.2 343.6l4.6-16.6c2.2-8 2.2-14.2 0.2-18.4l-70.8-81c-9.2 36.4-28.8 69.4-57.4 96-26.6 24.6-59.6 42.8-95.8 53l85 70.4c1.6 0.8 3.8 1.6 7.6 1.6 3.2 0 7-0.6 11-1.6l16.6-4.6L866 761.4c5.8 4.4 11.4 6.6 17 6.6 9.2 0 19.8-5.4 29.6-15.4 8.4-8.4 13.8-17.6 15-25.8 0.8-4.4 1-11.6-6.2-20.8zM322.2 367.6z"  horiz-adv-x="1024" />

    
    <glyph glyph-name="ios-cafe" unicode="&#59780;" d="M739.4 88H220.2c-15.2 0-28.2-11.6-28.8-26.8-0.8-16 12-29.2 28-29.2h519.2c15.2 0 28.2 11.6 28.8 26.8 0.6 16-12.2 29.2-28 29.2zM798.4 659c0.2 21.6-8.4 41.8-24.4 56.8-14.4 13.2-33.4 20.2-53 20.2H173.6c-19.8 0-39.4-7.2-53.8-20.8-16.2-15.4-24.8-36.4-23.8-58.6C100.8 552 116.6 460 143.6 383.4c22-63.2 51.6-116.2 87.8-157.8 63.6-73.2 137.6-97.6 155.8-97.6h120.2c11 0 50 14.4 88.4 39 44.8 28.8 84.8 73.4 116.2 129.2 4-0.2 8-0.4 11.8-0.4 54.4 0 105.6 19.4 144.2 54.8 38.8 35.6 60.2 82.8 60.2 133.2-0.2 77.8-51.8 147-129.8 175.2z m-59.4-306.2c28.4 69 47.2 152 55.6 246.8 0 0 0 0.2 0.2 0 20.6-10 38.2-24.4 51.6-41.8 16.8-21.8 25.6-47.4 25.6-74 0-68-58.4-124.2-133-131z"  horiz-adv-x="1024" />

    
    <glyph glyph-name="ios-bulb-outline" unicode="&#59781;" d="M800 518.4C800 674.2 667.8 800 512 800s-288-125.8-288-281.6c0-62.2 26.4-118.2 60.4-166.2h-0.6c21.8-30 42.8-55.4 63-90 44-75.6 37.2-148.6 37.4-163v-3h256v3c0 17.8-7.2 87.4 36.8 163 20.2 34.6 41.2 60 63 90h-0.2c33.8 47.8 60.2 104 60.2 166.2z m-98-163c-1.2-1.6-2.2-3-3.4-4.6-16.2-21.8-33-44.4-49.4-72.4-34.6-59.4-40.8-116.4-41.6-150.4H576V352.2l64 127.8h-33.2L544 352.2V128h-64V352.2L417.2 480H384l64-127.8V128h-31.8c-1 34-7.8 91.4-41.8 150-9 15.4-18.2 30-27.4 42h0.4l-37.2 51.2c-31.6 43.2-54.2 94.2-54.2 147.2 0 66.8 32 129.8 79.2 177 47.2 47.2 110 73 176.8 73s129.6-25.6 176.8-72.8c47.2-47.2 79.2-110 79.2-176.8 0-53-22.6-103.8-54.2-147.2l-11.8-16.2zM448 0h128v-32h-128zM416 64h192v-32h-192z"  horiz-adv-x="1024" />

    
    <glyph glyph-name="ios-bus-outline" unicode="&#59782;" d="M832 64c-17-37.4-48-32-127.8-32 0-21-2.2-32 6.6-32h110.2c9.4 0 8.4 7.6 11 64zM192 64c3-56.8 1.6-64 11-64h110.2c8.8 0 6.6 11 6.6 32-79.8 0-100.8-6-127.8 32zM704 192m-48 0a48 48 0 1 1 96 0 48 48 0 1 1-96 0ZM320 192m-48 0a48 48 0 1 1 96 0 48 48 0 1 1-96 0ZM768 768H256c-35.2 0-64-28.8-64-64v-560c0-44 36-80 80-80h480c44 0 80 36 80 80V704c0 35.2-28.8 64-64 64z m32-624c0-26.4-21.6-48-48-48H272c-26.4 0-48 21.6-48 48v144h576v-144zM224 352V607.6c0 17.6 14.8 32.4 32.4 32.4H496v-320H256.4c-17.6 0-32.4 14.4-32.4 32z m576 0c0-17.6-14.4-32-32-32H528V640h240c17.6 0 32-14.8 32-32.4V352z m-32 320H256c-17.6 0-32 14.4-32 32s14.4 32 32 32h512c17.6 0 32-14.4 32-32s-14.4-32-32-32z"  horiz-adv-x="1024" />

    
    <glyph glyph-name="ios-calculator-outline" unicode="&#59783;" d="M288 576h448V704H288v-128z m32 96h384v-64H320v64zM736 768H288c-35.4 0-64-28.6-64-64v-640c0-35.4 28.6-64 64-64h448c35.4 0 64 28.6 64 64V704c0 35.4-28.6 64-64 64z m32-704c0-17.6-14.4-32-32-32H288c-17.6 0-32 14.4-32 32V704c0 17.6 14.4 32 32 32h448c17.6 0 32-14.4 32-32v-640zM320 416v96h-32v-128h128v32h-32zM320 256v96h-32v-128h128v32h-32zM320 96v96h-32v-128h128v32h-32zM480 416v96h-32v-128h128v32h-32zM640 416v96h-32v-128h128v32h-32zM480 256v96h-32v-128h128v32h-32zM480 96v96h-32v-128h128v32h-32zM640 96V352h-32v-288h128v32h-32z"  horiz-adv-x="1024" />

    
    <glyph glyph-name="ios-business" unicode="&#59784;" d="M292 736h440c19.8 0 36 16.2 36 36s-16.2 36-36 36H292c-19.8 0-36-16.2-36-36s16.2-36 36-36zM796 696H228c-19.8 0-36-16.2-36-36 0-18.6 13.8-34.2 32-36v-600c0-26.4 21.6-48 48-48h176c8.8 0 16 7.2 16 16v80c0 8.8 7.2 16 16 16h64c8.8 0 16-7.2 16-16v-80c0-8.8 7.2-16 16-16h176c26.4 0 48 21.6 48 48V624c18.2 1.8 32 17.4 32 36 0 19.8-16.2 36-36 36zM384 168c0-8.8-7.2-16-16-16h-32c-8.8 0-16 7.2-16 16v32c0 8.8 7.2 16 16 16h32c8.8 0 16-7.2 16-16v-32z m0 128c0-8.8-7.2-16-16-16h-32c-8.8 0-16 7.2-16 16v32c0 8.8 7.2 16 16 16h32c8.8 0 16-7.2 16-16v-32z m0 128c0-8.8-7.2-16-16-16h-32c-8.8 0-16 7.2-16 16v32c0 8.8 7.2 16 16 16h32c8.8 0 16-7.2 16-16v-32z m0 128c0-8.8-7.2-16-16-16h-32c-8.8 0-16 7.2-16 16v32c0 8.8 7.2 16 16 16h32c8.8 0 16-7.2 16-16v-32z m160-384c0-8.8-7.2-16-16-16h-32c-8.8 0-16 7.2-16 16v32c0 8.8 7.2 16 16 16h32c8.8 0 16-7.2 16-16v-32z m0 128c0-8.8-7.2-16-16-16h-32c-8.8 0-16 7.2-16 16v32c0 8.8 7.2 16 16 16h32c8.8 0 16-7.2 16-16v-32z m0 128c0-8.8-7.2-16-16-16h-32c-8.8 0-16 7.2-16 16v32c0 8.8 7.2 16 16 16h32c8.8 0 16-7.2 16-16v-32z m0 128c0-8.8-7.2-16-16-16h-32c-8.8 0-16 7.2-16 16v32c0 8.8 7.2 16 16 16h32c8.8 0 16-7.2 16-16v-32z m160-384c0-8.8-7.2-16-16-16h-32c-8.8 0-16 7.2-16 16v32c0 8.8 7.2 16 16 16h32c8.8 0 16-7.2 16-16v-32z m0 128c0-8.8-7.2-16-16-16h-32c-8.8 0-16 7.2-16 16v32c0 8.8 7.2 16 16 16h32c8.8 0 16-7.2 16-16v-32z m0 128c0-8.8-7.2-16-16-16h-32c-8.8 0-16 7.2-16 16v32c0 8.8 7.2 16 16 16h32c8.8 0 16-7.2 16-16v-32z m0 128c0-8.8-7.2-16-16-16h-32c-8.8 0-16 7.2-16 16v32c0 8.8 7.2 16 16 16h32c8.8 0 16-7.2 16-16v-32z"  horiz-adv-x="1024" />

    
    <glyph glyph-name="ios-calculator" unicode="&#59785;" d="M744 800H280c-35.4 0-64-28.6-64-64v-704c0-35.4 28.6-64 64-64h464c35.4 0 64 28.6 64 64V736c0 35.4-28.6 64-64 64z m-24-544v-160c0-26.6-21.4-48-48-48s-48 21.4-48 48v160c0 26.6 21.4 48 48 48s48-21.4 48-48z m0 160c0-26.6-21.4-48-48-48s-48 21.4-48 48 21.4 48 48 48 48-21.4 48-48z m-160-320c0-26.6-21.4-48-48-48s-48 21.4-48 48 21.4 48 48 48 48-21.4 48-48z m0 160c0-26.6-21.4-48-48-48s-48 21.4-48 48 21.4 48 48 48 48-21.4 48-48z m0 160c0-26.6-21.4-48-48-48s-48 21.4-48 48 21.4 48 48 48 48-21.4 48-48z m-160-320c0-26.6-21.4-48-48-48s-48 21.4-48 48 21.4 48 48 48 48-21.4 48-48z m0 160c0-26.6-21.4-48-48-48s-48 21.4-48 48 21.4 48 48 48 48-21.4 48-48z m0 160c0-26.6-21.4-48-48-48s-48 21.4-48 48 21.4 48 48 48 48-21.4 48-48z m-96 160v96c0 17.6 14.4 32 32 32h352c17.6 0 32-14.4 32-32v-96c0-17.6-14.4-32-32-32H336c-17.6 0-32 14.4-32 32z"  horiz-adv-x="1024" />

    
    <glyph glyph-name="ios-calendar" unicode="&#59786;" d="M848 704h-80v-48c0-8.8-7.2-16-16-16h-32c-8.8 0-16 7.2-16 16V704H320v-48c0-8.8-7.2-16-16-16h-32c-8.8 0-16 7.2-16 16V704H176c-44 0-80-36-80-80v-544c0-44 36-80 80-80h672c44 0 80 36 80 80V624c0 44-36 80-80 80z m16-600c0-22-18-40-40-40H200c-22 0-40 18-40 40V464c0 8.8 7.2 16 16 16h672c8.8 0 16-7.2 16-16v-360zM320 752c0 8.8-7.2 16-16 16h-32c-8.8 0-16-7.2-16-16v-48h64V752zM768 752c0 8.8-7.2 16-16 16h-32c-8.8 0-16-7.2-16-16v-48h64V752z"  horiz-adv-x="1024" />

    
    <glyph glyph-name="ios-cafe-outline" unicode="&#59787;" d="M64 96h896v-32H64zM400 128h160c17.6 0 116 24 189.4 160.8 6.2-0.6 12.4-0.8 18.6-0.8 106 0 192 78.8 192 176 0 77.2-54.2 142.8-129.8 166.6 1.2 23.4 1.8 47.8 1.8 73.4H128c0-512 242-576 272-576z m528 336c0-79.4-71.8-144-160-144h-3.2c30.4 67.2 54.4 157.2 63.4 277.4C886.6 576 928 524.2 928 464zM160.4 672h639.2c-2.2-98.4-14.6-185.8-36.8-260.2-19.4-64.8-46.4-119.8-80.2-163.4-49-63.4-101.6-88.4-121.4-88.4h-160.2c-23.6 0-74.4 25.2-123.4 88.4-33.8 43.6-60.8 98.6-80.2 163.4-22.4 74.4-34.8 161.8-37 260.2z"  horiz-adv-x="1024" />

    
    <glyph glyph-name="ios-call" unicode="&#59788;" d="M873.8 166.4c-29.4 29.4-100 73.6-134.8 90.2-40.4 19.4-55.2 19-83.8-1.6-23.8-17.2-39.2-33.2-66.6-27.2-27.4 5.8-81.4 46.8-133.8 99-52.4 52.4-93.2 106.4-99 133.8-5.8 27.6 10.2 42.8 27.2 66.6 20.6 28.6 21.2 43.4 1.6 83.8C368 646 324 716.4 294.4 745.8c-29.4 29.4-36 23-52.2 17.2 0 0-24-9.6-47.8-25.4-29.4-19.6-45.8-36-57.4-60.6-11.4-24.6-24.6-70.4 42.6-190 54.2-96.6 107.4-169.8 186.4-248.6l0.2-0.2 0.2-0.2c79-79 152-132.2 248.6-186.4 119.6-67.2 165.4-54 190-42.6 24.6 11.4 41 27.8 60.6 57.4 15.8 23.8 25.4 47.8 25.4 47.8 5.8 16.2 12.4 22.8-17.2 52.2z"  horiz-adv-x="1024" />

    
    <glyph glyph-name="ios-calendar-outline" unicode="&#59789;" d="M704 704V768h-32v-64H352V768h-32v-64H128v-704h768V704h-192z m160-672H160V512h704v-480z m0 512H160v128h160v-64h32v64h320v-64h32v64h160v-128z"  horiz-adv-x="1024" />

    
    <glyph glyph-name="ios-car" unicode="&#59790;" d="M832 503.6c-27.6 61.6-98 184.4-200 184.4H392c-102 0-169.6-118.8-200-184.4-48-46-96-91.4-96-169.6v-152c0-7.4 5.2-14 12.4-15.6C138.2 159.6 232.8 146 512 146s373.8 13.6 403.6 20.4c7.2 1.6 12.4 8.2 12.4 15.6v152c0 78-44.6 126.2-96 169.6zM380 640h264c81 0 124-120 124-140H256c0 20 54 140 124 140z m-156-407.4c-35.4 0-64 28.6-64 64s28.6 64 64 64 64-28.6 64-64c0-35.2-28.6-64-64-64zM656 296c0-17.6-14.4-32-32-32H400c-17.6 0-32 14.4-32 32s14.4 32 32 32h224c17.6 0 32-14.4 32-32z m144-64c-35.4 0-64 28.6-64 64s28.6 64 64 64 64-28.6 64-64-28.6-64-64-64zM320 128c-95.8 0-192 10-192 10 0-34-0.6-58 12-58h170c12.6 0 10 26.4 10 48zM704 128c96 0 192 10 192 10 0-32 4-58-10-58h-172c-13.4 0-10 27-10 48z"  horiz-adv-x="1024" />

    
    <glyph glyph-name="ios-card" unicode="&#59791;" d="M960 640c0 35.2-28.8 64-64 64H128c-35.2 0-64-28.8-64-64v-96h896v96zM64 128c0-35.2 28.8-64 64-64h768c35.2 0 64 28.8 64 64V448H64v-320z m284 96h328c15.4 0 28-12.6 28-28s-12.6-28-28-28H348c-15.4 0-28 12.6-28 28s12.6 28 28 28z m-144 0h24c15.4 0 28-12.6 28-28s-12.6-28-28-28h-24c-15.4 0-28 12.6-28 28s12.6 28 28 28z"  horiz-adv-x="1024" />

    
    <glyph glyph-name="ios-call-outline" unicode="&#59792;" d="M831.8 225c-29.2 30-112.2 86.2-166.6 86.2-12.6 0-23.6-2.8-32.6-8.6-26.6-17-47.8-30.2-58-30.2-5.6 0-11.6 5-24.8 16.4l-2.2 2c-36.6 31.8-44.4 40-58.6 54.8l-3.6 3.8c-2.6 2.6-4.8 5-7 7.2-12.4 12.8-21.4 22-53.2 58l-1.4 1.6c-15.2 17.2-25.2 28.4-25.8 36.6-0.6 8 6.4 21 24.2 45.2 21.6 29.2 22.4 65.2 2.6 107-15.8 33-41.6 64.6-64.4 92.4l-2 2.4c-19.6 24-42.4 36-67.8 36-28.2 0-51.6-15.2-64-23.2-1-0.6-2-1.4-3-2-27.8-17.6-48-41.8-55.6-66.4-11.4-37-19-85 35.6-184.8 47.2-86.4 90-144.4 158-214.2 64-65.6 92.4-86.8 156-132.8 70.8-51.2 138.8-80.6 186.4-80.6 44.2 0 79 0 128.6 59.8 52 62.8 30.4 101.2-0.8 133.4z m-23-111.8c-40-48.4-63-48.4-104.6-48.4-40.6 0-103.6 28-168.4 74.6-62 44.8-89.6 65.4-151.8 129.2-65.8 67.4-107.2 123.6-152.8 207-48.2 88.2-42.8 126.8-33 158.6 5.2 17 20.8 35.2 42 48.4 1 0.6 2 1.4 3.2 2 10.6 6.8 28.2 18.2 47.4 18.2 16 0 30.2-8 43.8-24.6l2-2.4c51-62.4 90.8-117.6 60.8-158.4-21.2-28.6-32.4-48-30.6-68 1.6-19.4 14.6-34 34.2-56l1.4-1.6c32.2-36.4 41.4-46 54.2-59 2.2-2.2 4.4-4.6 7-7.2l3.6-3.8c14.8-15.4 23-23.8 60.6-56.8l2.2-2c16-14 27.8-24.2 45-24.2 17.8 0 37.4 11.2 74.6 35 3.8 2.4 9.2 3.8 16 3.8 43.4 0 118.2-49.6 144.4-76.6 24-24.4 36-42.8-1.2-87.8z"  horiz-adv-x="1024" />

    
    <glyph glyph-name="ios-camera" unicode="&#59793;" d="M512 346m-115 0a115 115 0 1 1 230 0 115 115 0 1 1-230 0ZM835 576H726c-9.2 0-17.8 4-24 10.8-56.8 63.6-78.2 85.2-101.4 85.2h-171c-23.4 0-46.4-21.6-103.4-85.4-6-6.8-14.8-10.6-23.8-10.6h-8.2v16c0 8.8-7.2 16-16 16h-52c-8.8 0-16-7.2-16-16v-16h-15C159.8 576 128 549.6 128 514.6v-352c0-35 31.8-66.6 67-66.6h640c35.2 0 61 31.6 61 66.6v352c0 35-25.8 61.4-61 61.4zM520 175.2c-100.6-4.6-183.4 78.2-178.8 178.8 4 87.8 75 158.8 162.8 162.8 100.6 4.6 183.4-78.2 178.8-178.8-4-87.8-75-158.8-162.8-162.8zM704 460c-14.4 0-26 11.6-26 26s11.6 26 26 26 26-11.6 26-26-11.6-26-26-26z"  horiz-adv-x="1024" />

    
    <glyph glyph-name="ios-camera-outline" unicode="&#59794;" d="M835 576h-123.4c-64.2 72-84.4 96-109 96h-177c-24.6 0-44.4-24-109-96H290v32h-68v-32H195C159.8 576 128 549.6 128 514.6v-352c0-35 31.8-66.6 67-66.6h640c35.2 0 61 31.6 61 66.6v352c0 35-25.8 61.4-61 61.4zM864 162.6c0-18.6-12.4-34.6-29-34.6h-640c-17.4 0-35 17.4-35 34.6v352c0 16.4 16.2 29.4 35 29.4h135.6l9.6 6.4c8 9 15.4 20 22.2 27.6 22.6 25.4 39 43.4 50.6 53.8 9.4 8.4 12.4 8.2 12.4 8.2h177s3.2 0.2 13.4-9c12.2-11 29.4-33 53.2-59.6 5.8-6.6 12-13.6 18.6-21l9.6-6.4h137.8c17.6 0 29-12 29-29.4v-352zM512 517c-94.2 0-171-76.8-171-171s76.8-171 171-171 171 76.8 171 171-76.8 171-171 171z m0-310c-76.8 0-139 62.2-139 139s62.2 139 139 139 139-62.2 139-139-62.2-139-139-139zM704 512h34v-34h-34zM512 346m-64 0a64 64 0 1 1 128 0 64 64 0 1 1-128 0Z"  horiz-adv-x="1024" />

    
    <glyph glyph-name="ios-card-outline" unicode="&#59795;" d="M864 672H160c-35.2 0-64-28.8-64-64v-448c0-35.2 28.8-64 64-64h704c35.2 0 64 28.8 64 64V608c0 35.2-28.8 64-64 64zM160 640h704c17.6 0 32-14.4 32-32v-64H128v64c0 17.6 14.4 32 32 32z m736-128v-96H128v96h768z m-32-384H160c-17.6 0-32 14.4-32 32V384h768v-224c0-17.6-14.4-32-32-32zM192 256h64v-32H192zM320 256h384v-32H320z"  horiz-adv-x="1024" />

    
    <glyph glyph-name="ios-cart-outline" unicode="&#59796;" d="M320 96c-26.496 0-48-21.504-48-48s21.504-48 48-48 48 21.504 48 48-21.504 48-48 48z m0-64c-8.822 0-16 7.178-16 16s7.178 16 16 16 16-7.178 16-16-7.178-16-16-16zM769 96c-26.496 0-48-21.504-48-48s21.504-48 48-48 48 21.504 48 48-21.504 48-48 48z m0-64c-8.822 0-16 7.178-16 16s7.178 16 16 16 16-7.178 16-16-7.178-16-16-16zM896 640L246.354 704.708c-3.256 13.944-8.738 29.32-23.676 41.334C204.05 761.022 173.964 768 128 768v-32.002c37.228 0 62.334-5.012 74.624-14.894 8.916-7.17 11.288-16.846 14.33-31.978l-0.048-0.008 84.104-467.276c4.826-28.844 14.388-50.418 26.582-65.972C342.086 137.376 361.066 128 384 128h480v32H384c-9.454 0-38.272-0.246-51.498 67.51l-10.858 60.32L864 384l32 256z m-58.82-228.696l-521.202-91.98-63.464 352.6 607.738-61.216-23.072-199.404z"  horiz-adv-x="1024" />

    
    <glyph glyph-name="ios-cart" unicode="&#59797;" d="M773.250485-36.00776718999998a59.99223281 59.99223281 0 1 0 60.00776719-59.99223281 60.06990281 60.06990281 0 0 0-60.00776719 59.99223281z m-561.25825219 0A59.99223281 59.99223281 0 1 0 272-96a60.06990281 60.06990281 0 0 0-59.99223281 59.99223281zM351.99999969 64.00000031000002a85.91844656 85.91844656 0 0 0-70.52427188 34.84271813 179.51067937 179.51067937 0 0 0-33.21165 82.45436906L143.13009687 765.39029156A60.79999969 60.79999969 0 0 1 125.20388375 805.3747575c-15.36310687 12.42718406-46.7417475 18.64077656-93.20388375 18.64077656V864c57.47572781 0 95.06796094-8.7300975 118.35339844-27.44854406a87.4252425 87.4252425 0 0 0 29.5922325-51.66601875L992 703.99999969l-40.00000031-319.99999969-677.93398031-120.21747563 13.56116531-75.40194187c16.54368937-84.69126187 52.56699-84.38058281 64.372815-84.38058281h600V64.00000031000002z"  horiz-adv-x="1024" />

    
    </font>
</defs>
</svg>
